<svg xmlns="http://www.w3.org/2000/svg" width="166" height="177" fill="none">
  <g clip-path="url(#a)" style="mix-blend-mode:screen">
    <path fill="#7D7A7C" d="M94.703 86.876a5.628 5.628 0 0 1 3.227.044 12.974 12.974 0 0 1-2.632 1.647c-1.696 1.007-2.927.681-3.127.232-.2-.45.33-1.61 2.532-1.923Z" opacity=".5"/>
    <path fill="#F9E6CF" d="M93.32 87.647c.552-.233 1.098.015 1.232.223.135.208-.217.787-.769 1.02-.552.233-1.098-.015-1.233-.223-.134-.208.183-.822.77-1.02Z"/>
    <path fill="#7D7A7C" d="M96.82 95.287a6.117 6.117 0 0 0 .283-3.053c.01-.825-.567-1.245-.463-1.312.104-.067.686.01 1.223.944a6.184 6.184 0 0 1 .774 3.652c-.253 3.431-1.884 4.68-2.293 4.503-.41-.178-.526-1.76.476-4.734Z" opacity=".5"/>
    <path fill="#F9E6CF" d="M96.514 97.584c.252-.855.776-1.5 1.084-1.428.308.073.468.9.181 1.823-.287.923-.88 1.534-1.187 1.426-.307-.107-.296-.931-.078-1.821Z"/>
    <path fill="#7D7A7C" d="M90.015 78.121a5.015 5.015 0 0 1 1.54 2.872c.162.758.155 1.273-.017 1.27-.172-.002-1.142-1.835-2.676-2.612-1.535-.777-2.921.2-3.223-.353-.301-.554.01-.687.463-1.23a3.433 3.433 0 0 1 1.45-.633 2.813 2.813 0 0 1 2.463.686Z" opacity=".5"/>
    <path fill="#F9E6CF" d="M87.548 77.813c.995.013 1.71.47 1.534.776-.176.307-.727.437-1.312.532-.585.095-1.27-.018-1.441-.02-.172-.002.151-1.028 1.219-1.288Z"/>
    <path fill="#7D7A7C" d="M81.47 82.814a5.973 5.973 0 0 1 4.793 1.061 18.23 18.23 0 0 0-4.267.698c-2.18 1.172-3.464 2.185-3.837 1.87-.374-.314-.3-.656.019-1.407a4.568 4.568 0 0 1 3.293-2.222Z" opacity=".5"/>
    <path fill="#F9E6CF" d="M79.254 84.226c.831-.573 1.657-.664 1.823-.284.166.38-.355.888-1.014 1.36-.659.472-1.282.807-1.519.597-.237-.21-.02-.996.71-1.673Z"/>
    <path fill="#7D7A7C" d="M76.268 94.112a18.777 18.777 0 0 1 6.384-2.317s-2.599 1.716-5.375 3.877c-3.47 2.597-4.725 4.023-5.17 3.88-.444-.144-.367-.761.197-1.818a9.273 9.273 0 0 1 3.964-3.622Z" opacity=".5"/>
    <path fill="#F9E6CF" d="M73.557 96.48c1.008-.914 2.044-1.312 2.28-1 .236.313-.462 1.128-1.366 1.974-.904.846-1.668 1.488-2.009 1.278-.34-.211.155-1.303 1.095-2.252Z"/>
    <path fill="#7D7A7C" d="M101.255 79.82a8.888 8.888 0 0 1-3.466 2.392 22.265 22.265 0 0 1 1.935-3.408c.599-1.091.814-1.741.985-1.739.172.003.004-.24.006-.446a.58.58 0 0 1 .007-.447s.456-.715 1.441.02a1.992 1.992 0 0 1 .248 1.962 4.835 4.835 0 0 1-1.156 1.667Z" opacity=".5"/>
    <path fill="#F9E6CF" d="M102.211 77.704c-.321.923-.978 1.258-1.25 1.048-.272-.21-.229-.862.019-1.408a.583.583 0 0 1 .005-.344.272.272 0 0 1 .003-.206l.007-.515a.438.438 0 0 1 .345-.156.446.446 0 0 1 .341.166c.159.184.284.395.369.623.09.255.144.522.161.792Z"/>
    <path fill="#7D7A7C" d="M93.635 72.09a12.507 12.507 0 0 1-1.859 5.368c-.206-.002.036-2.61.075-5.426a9.794 9.794 0 0 0-.64-3.444 2.917 2.917 0 0 1-.436-.762c-.17-.174-.236-.312-.2-.449.036-.137.592-.576 1.682.023a4.671 4.671 0 0 1 1.378 4.69Z" opacity=".5"/>
    <path fill="#F9E6CF" d="M92.99 69.059c.464 1.209-.03 2.13-.27 2.16-.24.031-.64-.867-.973-1.662-.332-.794-.368-.726-.397-1.07a.72.72 0 0 1-.232-.656c.003-.171.38-.166.824.011.467.288.833.713 1.048 1.217Z"/>
    <path fill="#7D7A7C" d="M95.164 70.772c.554-2.843 1.07-5.447 1.44-7.4a17.18 17.18 0 0 1 .695-3.082c.173 1.045.216 2.107.129 3.162-.027 1.958-.064 4.67-.413 7.586-.68 7.032-2.204 10.481-2.681 10.269-.478-.213-.677-3.239.83-10.535Z" opacity=".5"/>
    <path fill="#F9E6CF" d="M94.438 76.155c.337-2.056.909-3.663 1.252-3.624.342.039.422 1.758-.053 3.846-.475 2.09-.977 3.663-1.317 3.418-.34-.246.09-1.614.118-3.64Z"/>
    <path fill="#7D7A7C" d="M103.082 64.285a80.811 80.811 0 0 1-2.558 6.251 10.92 10.92 0 0 1-1.34 2.524c-.17-.002.952-4.281 2.12-9.315a53.403 53.403 0 0 1 2.423-8.932c.206.003.78.663.861 2.313a21.14 21.14 0 0 1-1.506 7.159Z" opacity=".5"/>
    <path fill="#F9E6CF" d="M104.041 59.455c-.369 1.85-1.077 3.42-1.451 3.14-.374-.28-.218-1.617.047-3.434.265-1.818.73-3.185 1.108-3.18.377.005.699 1.624.296 3.474Z"/>
    <path fill="#7D7A7C" d="M75.749 89.434a14.381 14.381 0 0 1 6.501-.839c-.003.206-2.829.958-5.803 2.531-3.46 1.911-5.158 3.021-5.6 2.706-.442-.315-.16-.826.572-1.675a8.617 8.617 0 0 1 4.33-2.723Z" opacity=".5"/>
    <path fill="#F9E6CF" d="M72.874 91.249c1.074-.775 2.174-.863 2.307-.552.133.31-.631.987-1.602 1.66-.97.674-1.869 1.109-2.14.796-.27-.313.326-1.198 1.435-1.904Z"/>
    <path fill="#7D7A7C" d="M60.775 79.61c2.702.227 5.376.724 7.98 1.484 1.118.215 2.2.589 3.212 1.109-.003.24-5.173-.827-11.252-.773-2.75.022-5.495.237-8.215.644-1.824.25-2.788.442-2.887.2-.1-.241.46-.99 2.289-1.686a18.465 18.465 0 0 1 8.873-.977Z" opacity=".5"/>
    <path fill="#F9E6CF" d="M54.861 80.114c2.271-.347 4.12.056 4.116.33-.003.275-1.794.663-3.927.977-2.134.315-3.855.67-4.021.255-.167-.415 1.528-1.32 3.832-1.562Z"/>
    <path fill="#7D7A7C" d="m115.081 73.243-6.677 3.618a16.95 16.95 0 0 1-2.836 1.473 13.46 13.46 0 0 1 2.399-2.131 88.611 88.611 0 0 1 6.105-4.554 25.339 25.339 0 0 1 7.329-3.61c1.862-.524 2.987.041 2.918.04-.068 0-2.665 1.544-9.238 5.164Z" opacity=".5"/>
    <path fill="#F9E6CF" d="M119.652 70.42c-1.867.902-3.454 1.498-3.656 1.187-.202-.312 1.153-1.462 3.054-2.397 1.902-.936 3.725-1.186 3.823-.807.098.38-1.389 1.08-3.221 2.017Z"/>
    <path fill="#7D7A7C" d="M115.253 83.207c-3.433-.047-6.392.393-6.424.187a17.406 17.406 0 0 1 6.346-2.009 5.663 5.663 0 0 1 5.202 1.274c.945 1.18.488 1.999.282 1.996-.206-.003-.578-.42-1.261-.739a10.843 10.843 0 0 0-4.145-.71Z" opacity=".5"/>
    <path fill="#F9E6CF" d="M118.377 83.215c-1.06-.29-2.086-.578-2.081-.921.004-.344 1.074-.741 2.442-.38 1.369.363 2.07 1.78 1.691 1.913-.38.132-1.06-.358-2.052-.612Z"/>
    <path fill="#7D7A7C" d="M110.983 61.507c-1.682 2.45-3.497 4.624-4.514 6.19a14.758 14.758 0 0 1-2.094 2.445c.35-1.015.812-1.989 1.379-2.9.951-1.774 2.254-4.126 3.527-6.823 3.586-6.1 5.684-8.887 6.096-8.882.412.006-.05 3.71-4.394 9.97Z" opacity=".5"/>
    <path fill="#F9E6CF" d="M113.591 56.631c-1.055 1.84-2.207 3.164-2.513 2.954-.306-.21.299-1.782 1.355-3.623 1.055-1.84 2.035-3.166 2.376-3.024.341.142-.165 2.024-1.218 3.693Z"/>
    <path fill="#7D7A7C" d="M91.949 52.281c.4 3.44.558 6.878.63 9.146a25.012 25.012 0 0 1-.052 3.847 22.502 22.502 0 0 1-.773-3.755c-.414-2.341-.92-5.509-1.63-8.92-.835-4.133-1.549-7.2-2.105-9.234s-.955-2.967-.747-3.136c.209-.169 1.197.394 2.166 2.365a28.24 28.24 0 0 1 2.511 9.687Z" opacity=".5"/>
    <path fill="#F9E6CF" d="M90.355 45.836c.653 2.482.693 4.578.349 4.642-.345.064-1.005-1.903-1.624-4.282-.62-2.378-1.04-4.273-1.038-4.48.003-.205 1.695 1.638 2.313 4.12Z"/>
    <path fill="#7D7A7C" d="M82.936 98.704a13.391 13.391 0 0 1 3.477-3.182 25.074 25.074 0 0 1-2.05 4.232 14.849 14.849 0 0 1-1.858 2.791c-.419.544-.87.813-1.109.775-.24-.038-.474-.522-.359-1.379a6.873 6.873 0 0 1 1.899-3.237Z" opacity=".5"/>
    <path fill="#F9E6CF" d="M81.841 100.887c.458-.818 1.117-1.29 1.423-1.08.306.211.158.964-.264 1.748-.423.785-.98 1.258-1.287 1.151-.307-.108-.364-1.001.128-1.819Z"/>
    <path fill="#7D7A7C" d="m69.578 136.341 7.059-13.953 2.186-4.229c.258-.531.552-1.044.88-1.534a7.77 7.77 0 0 1-.572 1.675c-.393 1.06-.997 2.597-1.744 4.442-1.527 3.723-3.555 8.848-5.965 14.38-5.644 13.423-9.475 19.931-9.919 19.719-.443-.212 1.393-6.404 8.075-20.5Z" opacity=".5"/>
    <path fill="#F9E6CF" d="M65.282 146.691a22.915 22.915 0 0 1 3.836-6.818 24.054 24.054 0 0 1-2.642 7.384 23.302 23.302 0 0 1-3.802 6.818 23.463 23.463 0 0 1 2.608-7.384Z"/>
    <path fill="#7D7A7C" d="m62.659 140.128 8.645-14.481c1.159-1.839 2.073-3.407 2.739-4.394.324-.558.687-1.092 1.086-1.599a11.46 11.46 0 0 1-.78 1.741c-.53 1.126-1.341 2.695-2.295 4.64l-7.793 14.974c-7.333 13.949-12.027 20.72-12.47 20.44-.442-.281 2.326-6.873 10.868-21.321Z" opacity=".5"/>
    <path fill="#F9E6CF" d="M56.984 150.837a25.875 25.875 0 0 1 4.698-7.047 27.719 27.719 0 0 1-3.54 7.715 28.621 28.621 0 0 1-4.697 7.046 26.56 26.56 0 0 1 3.54-7.714Z"/>
    <path fill="#7D7A7C" d="M55.448 142.606c3.153-4.56 6.06-8.746 8.265-11.738l2.621-3.399c.63-.816.98-1.292 1.048-1.257a8.646 8.646 0 0 1-.776 1.466l-2.215 3.783c-1.932 3.203-4.533 7.564-7.413 12.299-7.024 11.412-11.118 17.024-11.663 16.707-.545-.317 1.904-6.157 10.133-17.861Z" opacity=".5"/>
    <path fill="#F9E6CF" d="M50.006 151.428a20.609 20.609 0 0 1 4.472-5.675 19.587 19.587 0 0 1-3.521 6.41 19.88 19.88 0 0 1-4.336 5.745 19.582 19.582 0 0 1 3.385-6.48Z"/>
    <path fill="#7D7A7C" d="m59.348 131.186 6.536-8.395a30.36 30.36 0 0 1 2.93-3.395 27.81 27.81 0 0 1-2.25 3.885c-1.44 2.35-3.51 5.517-5.72 8.99-5.437 8.342-9.025 12.071-9.467 11.791-.443-.281 1.434-4.446 7.97-12.876Z" opacity=".5"/>
    <path fill="#F9E6CF" d="M55.036 137.619c1.716-2.415 3.32-4.179 3.489-3.971.168.208-.822 2.325-2.538 4.74-1.715 2.416-3.319 4.18-3.488 3.971-.169-.208.857-2.358 2.537-4.74Z"/>
    <path fill="#7D7A7C" d="M61.01 112.625c3.47-2.735 6.56-5.132 8.917-6.748a30.527 30.527 0 0 1 3.916-2.66s-.28.374-.871.949l-2.504 2.336-8.243 7.617c-7.754 7.073-11.716 10.557-12.122 10.139-.407-.418 2.089-4.609 10.907-11.633Z" opacity=".5"/>
    <path fill="#F9E6CF" d="M55.095 118.281c2.295-2.099 4.375-3.547 4.647-3.372.272.176-1.473 2.247-3.667 4.519-2.195 2.271-4.172 3.721-4.442 3.374-.27-.347 1.166-2.389 3.462-4.521Z"/>
    <path fill="#7D7A7C" d="M44.648 131.431a493.992 493.992 0 0 1 12.474-10.718l3.89-3.21c.47-.42.982-.793 1.526-1.113a8.372 8.372 0 0 1-1.29 1.391l-3.482 3.559a1738.38 1738.38 0 0 0-11.798 11.449c-5.521 5.352-9.753 9.325-12.696 11.918-2.885 2.605-4.414 3.89-4.583 3.716-.17-.174 3.62-6.168 15.959-16.992Z" opacity=".5"/>
    <path fill="#F9E6CF" d="M36.156 139.766a25.122 25.122 0 0 1 6.458-5.202 26.387 26.387 0 0 1-5.544 6.142 29.507 29.507 0 0 1-6.288 5.341 23.823 23.823 0 0 1 5.374-6.281Z"/>
    <path fill="#7D7A7C" d="m49.982 133.084 9.471-9.626 2.924-2.845c.35-.373.734-.713 1.147-1.015a6.886 6.886 0 0 1-.876 1.259l-2.584 3.159-8.587 10.188c-8.165 9.507-13.064 13.733-13.474 13.556-.41-.177 2.715-5.184 11.979-14.676Z" opacity=".5"/>
    <path fill="#F9E6CF" d="M43.668 140.315c2.51-2.748 4.735-4.779 5.006-4.501a17.166 17.166 0 0 1-3.988 5.373c-2.51 2.748-4.735 4.745-5.006 4.501a17.166 17.166 0 0 1 3.988-5.373Z"/>
    <path fill="#7D7A7C" d="M46.771 119.3c4.858-3.712 9.398-6.742 12.864-9.133l3.985-2.625a6.893 6.893 0 0 1 1.523-.907c-.407.431-.849.827-1.32 1.185l-3.682 3.007-12.117 9.795c-11.354 9.12-17.084 13.816-17.354 13.503-.27-.313 3.48-5.826 16.101-14.825Z" opacity=".5"/>
    <path fill="#F9E6CF" d="M38.09 126.361a22.318 22.318 0 0 1 6.515-4.377c.237.313-2.337 2.682-5.67 5.419a27.864 27.864 0 0 1-6.313 4.585 20.982 20.982 0 0 1 5.468-5.627Z"/>
    <path fill="#7D7A7C" d="M30.855 108.021c5.938-2.323 11.491-4.136 15.527-5.421l4.827-1.445a9.445 9.445 0 0 1 1.825-.422c-.547.293-1.112.549-1.693.767l-4.661 1.894c-3.937 1.595-9.323 3.755-15.127 6.32-6.91 3.1-12.197 5.57-15.587 7.378a43.822 43.822 0 0 1-5.154 2.781c-.206-.003.813-1.741 3.969-3.965a77.882 77.882 0 0 1 16.074-7.887Z" opacity=".5"/>
    <path fill="#F9E6CF" d="M20.107 113.13a21.547 21.547 0 0 1 7.765-2.848 33.452 33.452 0 0 1-7.164 4.059 40.078 40.078 0 0 1-7.43 3.505 19.258 19.258 0 0 1 6.829-4.716Z"/>
    <path fill="#7D7A7C" d="M33.11 113.858c4.77-2.202 9.258-4.03 12.504-5.325l3.763-1.495a7.616 7.616 0 0 1 1.483-.46s-.451.337-1.316.806l-3.632 1.908-12.002 6.397c-5.57 2.981-9.79 5.225-12.557 6.698a21.1 21.1 0 0 1-4.323 2.277c-.474-.522 3.643-5.24 16.08-10.806Z" opacity=".5"/>
    <path fill="#F9E6CF" d="M24.494 118.686a16.615 16.615 0 0 1 6.32-2.661c.202.346-2.395 1.959-5.648 3.804a24.288 24.288 0 0 1-6.085 3.043c-.236-.313 2.126-2.341 5.413-4.186Z"/>
    <path fill="#7D7A7C" d="M38.968 114.934a248.502 248.502 0 0 1 10.091-4.774l3.143-1.331c.387-.186.791-.33 1.208-.43-.31.296-.66.545-1.04.741l-2.943 1.781-9.589 5.639a89.178 89.178 0 0 1-13.839 7.574c-.337-.416 3.012-4.252 12.969-9.2Z" opacity=".5"/>
    <path fill="#F9E6CF" d="M32.043 119.099c2.666-1.613 4.98-2.543 5.181-2.231.202.312-1.879 1.795-4.51 3.373a14.98 14.98 0 0 1-5.013 2.474c-.134-.243 1.778-1.934 4.342-3.616Z"/>
    <path fill="#7D7A7C" d="M33.834 83.604c5.287.073 10.123.482 13.723.875l4.147.538c.51.053 1.014.152 1.507.295a7.827 7.827 0 0 1-1.545-.021l-4.257-.058c-3.433-.047-8.342-.115-13.565.158-4.723.15-9.432.601-14.097 1.352-3.099.576-4.584 1.243-4.752.966-.168-.277.946-1.361 4.016-2.418a45.647 45.647 0 0 1 14.823-1.687Z" opacity=".5"/>
    <path fill="#F9E6CF" d="M23.964 84.637a14.827 14.827 0 0 1 6.867.094 22.415 22.415 0 0 1-6.713 1.214 40.945 40.945 0 0 1-6.708.87c-.164-.518 2.738-1.783 6.554-2.178Z"/>
    <path fill="#7D7A7C" d="M42.747 89.67c3.782-.327 7.251-.417 9.757-.383a25.627 25.627 0 0 1 4.118.228c-1.333.321-2.692.521-4.06.597-2.477.31-5.917.744-9.565 1.381-4.44.798-7.747 1.543-9.885 2.166-2.137.624-3.175 1.16-3.446.95-.272-.21.463-1.23 2.538-2.336a28.418 28.418 0 0 1 10.543-2.604Z" opacity=".5"/>
    <path fill="#F9E6CF" d="M35.858 91.258c2.653-.685 4.885-.689 4.949-.344.064.344-2.074.967-4.624 1.654a16.648 16.648 0 0 1-4.718 1.035c-.235-.382 1.705-1.66 4.393-2.345Z"/>
    <path fill="#7D7A7C" d="M71.178 77.142c1.951.45 3.87 1.027 5.745 1.728a10.3 10.3 0 0 1 2.287 1.061c-.003.206-3.839-.533-8.331-.972a53.015 53.015 0 0 1-8.164-.662c.004-.274.389-.784 1.838-1.28a14.176 14.176 0 0 1 6.625.125Z" opacity=".5"/>
    <path fill="#F9E6CF" d="M66.956 77.016c1.682.023 2.98.521 2.94.864-.038.343-1.379.462-2.958.475-1.58.013-2.85-.04-2.947-.418-.098-.38 1.077-.947 2.965-.921Z"/>
    <path fill="#7D7A7C" d="M59.172 66.26c2.589.906 5.1 2.02 7.508 3.332a15.86 15.86 0 0 1 2.894 1.826 20.26 20.26 0 0 1-3.248-1.04 75.516 75.516 0 0 0-7.624-2.44 63.419 63.419 0 0 0-11.04-1.251s.005-.343.49-.68a11.26 11.26 0 0 1 2.037-.763 17.436 17.436 0 0 1 8.983 1.016Z" opacity=".5"/>
    <path fill="#F9E6CF" d="M53.38 65.426c2.297.237 4.04.914 3.965 1.325-.074.411-1.892.214-4.051-.056l-2.78-.038c-.722-.01-1.168-.016-1.199-.29-.03-.276.384-.408 1.108-.673.97-.213 1.964-.304 2.957-.268Z"/>
    <path fill="#7D7A7C" d="M49.435 70.18a73.17 73.17 0 0 1 9.227 3.184 24.033 24.033 0 0 1 3.65 1.767 22.374 22.374 0 0 1-3.935-.98c-2.395-.617-5.713-1.556-9.345-2.155a63.323 63.323 0 0 0-9.874-1.097c-1.14.166-2.298.15-3.433-.047.004-.31.734-.952 3.043-1.573a24.712 24.712 0 0 1 10.667.902Z" opacity=".5"/>
    <path fill="#F9E6CF" d="M42.372 69.397c2.746.037 4.829.925 4.755 1.267-.073.343-2.2.21-4.806-.066l-3.433-.046c-.961-.014-1.373-.02-1.44-.226-.065-.207.488-.474 1.35-.737a16.82 16.82 0 0 1 3.574-.192Z"/>
    <path fill="#7D7A7C" d="M29.535 74.03c5.892 1.043 11.266 2.284 15.098 3.299 1.95.473 3.421.905 4.584 1.23.58.122 1.142.314 1.675.573a10.303 10.303 0 0 1-1.748-.23l-4.658-.854c-3.94-.638-9.32-1.536-15.216-2.235a154.87 154.87 0 0 0-16.12-1.32 50.838 50.838 0 0 1-5.493-.075c.002-.206 1.424-1.183 5.035-1.614a60.445 60.445 0 0 1 16.843 1.227Z" opacity=".5"/>
    <path fill="#F9E6CF" d="M18.353 73.122c2.617-.125 5.23.296 7.675 1.238a28.45 28.45 0 0 1-7.725-.105 50.52 50.52 0 0 1-7.69-.106 14.484 14.484 0 0 1 7.74-1.027Z"/>
    <path fill="#7D7A7C" d="M82.434 72.625a8.62 8.62 0 0 1 2.709 2.785c.538.832.736 1.418.667 1.452a28.05 28.05 0 0 0-4.188-2.6 7.14 7.14 0 0 0-3.05-.42c-.79-.01-1.27-.017-1.406-.19-.135-.174.011-.825.808-1.294a4.119 4.119 0 0 1 4.46.267Z" opacity=".5"/>
    <path fill="#F9E6CF" d="M79.487 72.206c1.201.017 1.948.611 1.807.884-.14.273-.897.331-1.757.422-.86.091-1.613-.022-1.782-.23-.169-.209.564-1.023 1.732-1.076Z"/>
    <path fill="#7D7A7C" d="M83.106 61.126a44.396 44.396 0 0 1 3.09 7.6c.425 1.104.686 2.265.777 3.445-.206-.002-2.097-4.837-5.46-9.967a24.453 24.453 0 0 0-5.274-6.084c-1.393-1.084-2.351-1.337-2.313-1.612.038-.274 1.004-.639 2.918.04a13.737 13.737 0 0 1 6.263 6.578Z" opacity=".5"/>
    <path fill="#F9E6CF" d="M79.254 56.505c1.66 1.637 2.39 3.467 2.116 3.463-.275-.004-1.53-1.154-3.054-2.652-1.524-1.498-2.989-2.342-2.881-2.684.108-.342 2.126.166 3.82 1.873Z"/>
    <path fill="#7D7A7C" d="M115.871 95.754c-4.597-2.811-9.111-4.178-9.039-4.418 1.02.026 2.033.178 3.016.454a32.71 32.71 0 0 1 6.835 2.36 11.914 11.914 0 0 1 5.867 5.37c.263.64.439 1.313.522 2-.007.515-.01.756-.285.786-.276.031-.61-.627-1.555-1.842a20.589 20.589 0 0 0-5.361-4.71Z" opacity=".5"/>
    <path fill="#F9E6CF" d="M119.988 98.489c-.677-.662-1.322-1.255-1.727-1.741-.405-.487-.71-.8-.605-.97.106-.17.55.007 1.165.188.754.452 1.46.979 2.107 1.574 1.489 1.566 1.841 3.46 1.498 3.455-.343-.005-1.15-1.286-2.438-2.506Z"/>
    <path fill="#7D7A7C" d="M105.205 99.867a14.31 14.31 0 0 0-1.278-4.483 6.33 6.33 0 0 1 3.103 4.13c.982 3.449-.518 5.18-.928 5.037-.41-.143-.802-1.625-.897-4.684Z" opacity=".5"/>
    <path fill="#F9E6CF" d="M105.654 102.14c.013-.893.023-1.648.573-1.709.55-.062.814.732.766 1.727-.048.996-.436 1.746-.813 1.707-.377-.04-.536-.935-.526-1.725Z"/>
    <path fill="#7D7A7C" d="M98.54 112.726a53.4 53.4 0 0 0-1.044-9.117c.56.748.979 1.592 1.237 2.49a24.462 24.462 0 0 1 1.592 6.583 15.047 15.047 0 0 1-.99 7.131c-.64 1.537-1.334 2.112-1.539 2.04-.205-.071.348-2.846.743-9.127Z" opacity=".5"/>
    <path fill="#F9E6CF" d="M98.476 117.328c.264-1.748.627-3.151.97-3.147.343.005.632 1.52.33 3.44-.3 1.919-1.074 3.249-1.45 3.106-.375-.143-.251-1.687.15-3.399Z"/>
    <path fill="#7D7A7C" d="m76.108 130.934 5.129-10.956c.705-1.365 1.27-2.525 1.66-3.413.39-.887.635-1.227.703-1.192a9.252 9.252 0 0 1-.361 1.335l-1.215 3.418c-1.105 2.973-2.6 6.835-4.207 11.347-4.025 10.594-7.082 15.67-7.49 15.458-.41-.211.72-5.039 5.78-15.997Z" opacity=".5"/>
    <path fill="#F9E6CF" d="M72.975 139.067a14.621 14.621 0 0 1 2.957-5.318 13.952 13.952 0 0 1-1.728 5.85 14.084 14.084 0 0 1-2.957 5.318c.16-2.049.75-4.042 1.728-5.85Z"/>
    <path fill="#7D7A7C" d="M85.968 133.027c.74-3.871 1.373-7.469 1.855-10.108.212-1.426.53-2.834.95-4.212a32.782 32.782 0 0 1-.058 4.327c-.208 2.643-.43 6.281-.862 10.294-.921 9.605-2.944 14.387-3.457 14.208-.512-.179-.213-4.468 1.572-14.509Z" opacity=".5"/>
    <path fill="#F9E6CF" d="M85.112 140.435c.518-2.775 1.064-5.035 1.442-4.995a9.928 9.928 0 0 1-.072 5.22c-.484 2.776-1.167 5-1.578 4.925-.315-1.71-.244-3.47.208-5.15Z"/>
    <path fill="#7D7A7C" d="M89.673 148.364c.5-6.485.994-12.421 1.328-16.779.202-2.162.364-3.946.45-5.181.013-.637.102-1.27.265-1.886a17.75 17.75 0 0 1-.026 1.923l-.07 5.152-.231 16.863c-.457 15.795-2.63 24.01-3.175 23.762-.546-.248.131-7.109 1.46-23.854Z" opacity=".5"/>
    <path fill="#F9E6CF" d="M89.06 160.516a29.17 29.17 0 0 1 1.282-8.364c.488 2.794.507 5.65.056 8.451a24.88 24.88 0 0 1-1.522 8.361 30.923 30.923 0 0 1 .184-8.448Z"/>
    <path fill="#7D7A7C" d="M93.458 130.244c.567-3.805.993-7.337 1.166-9.946.063-1.413.208-2.822.435-4.219.102.371.166.752.19 1.136-.01.722.148 1.789.199 3.095a77.318 77.318 0 0 1-.141 10.303 30.24 30.24 0 0 1-2.617 10.579 24.025 24.025 0 0 1-1.578 2.348c-.418.475-.763.608-.865.538-.103-.07 1.53-3.929 3.21-13.834Z" opacity=".5"/>
    <path fill="#F9E6CF" d="M92.363 137.443a13.124 13.124 0 0 1 1.645-4.752c.412.005.311 2.34-.38 5.113a22.233 22.233 0 0 1-1.35 3.416c-.527.818-.945 1.258-1.081 1.153-.136-.104.009-.652.192-1.508.184-.857.51-2.123.974-3.422Z"/>
    <path fill="#7D7A7C" d="M105.233 112.852c-.576-3.065-1.225-5.856-1.712-7.89l-.654-2.379a3.386 3.386 0 0 1 .013-.927c.653.948 1.192 1.97 1.606 3.045a70.652 70.652 0 0 1 2.71 7.731c2.062 7.38 1.732 11.463 1.284 11.525-.447.063-1.879-3.186-3.247-11.105Z" opacity=".5"/>
    <path fill="#F9E6CF" d="M106.667 118.505c-.451-2.204-.494-4.026-.15-4.124.345-.098 1.008 1.663 1.458 3.867.451 2.205.391 4.093-.056 4.122-.447.028-.802-1.66-1.252-3.865Z"/>
    <path fill="#7D7A7C" d="M98.772 150.927c-.173-4.948-.35-9.554-.476-12.922.023-1.649.041-3.022-.118-3.952a8.08 8.08 0 0 1 .02-1.477c.184.451.293.928.325 1.413-.013.962.346 2.306.598 3.959.468 3.441 1.06 7.88 1.506 12.867 1.208 12.143-.253 18.546-.904 18.434-.651-.112-.509-5.503-.951-18.322Z" opacity=".5"/>
    <path fill="#F9E6CF" d="M99.4 160.176c-.258-2.172-.1-4.373.467-6.485a14.832 14.832 0 0 1 .873 6.469 13.2 13.2 0 0 1-.672 6.484 20.301 20.301 0 0 1-.667-6.468Z"/>
    <path fill="#7D7A7C" d="M78.183 26.983a294.55 294.55 0 0 1 3.938 15.786c.453 2.033.808 3.721 1.032 4.892a7.46 7.46 0 0 1 .284 1.825 12.26 12.26 0 0 1-.627-1.83l-1.48-4.726c-1.25-4.036-2.926-9.52-4.905-15.49-2.408-7.178-4.291-12.597-5.685-16.12a44.664 44.664 0 0 1-2.124-5.388c.174-.203 1.634.984 3.374 4.375a81.871 81.871 0 0 1 6.193 16.676Z" opacity=".5"/>
    <path fill="#F9E6CF" d="M74.181 15.764a22.193 22.193 0 0 1 2.055 7.929 30.162 30.162 0 0 1-3.332-7.466 43.835 43.835 0 0 1-2.641-7.696 17.931 17.931 0 0 1 3.918 7.233Z"/>
    <path fill="#7D7A7C" d="M70.873 61.818a37.776 37.776 0 0 1 4.666 5.25c.63.763 1.16 1.6 1.58 2.495-.171-.002-3.218-3.204-7.399-6.318a21.01 21.01 0 0 0-5.964-3.277c-1.403-.397-2.228-.27-2.328-.547-.099-.276.495-1.023 2.35-1.067a10.917 10.917 0 0 1 7.095 3.464Z" opacity=".5"/>
    <path fill="#F9E6CF" d="M66.376 59.214c1.877.816 2.924 2.101 2.714 2.373-.21.272-1.608-.434-3.246-1.144-1.639-.71-3.009-.934-3.072-1.313-.064-.378 1.727-.8 3.604.084Z"/>
    <path fill="#7D7A7C" d="M34.074 63.478c6.833 2.533 13.15 5.127 17.69 7.113l5.324 2.374c.667.29 1.316.62 1.944.988a13.423 13.423 0 0 1-2.086-.647l-5.5-2.033c-4.614-1.643-11.004-3.895-17.978-6.12-8.48-2.68-14.898-4.566-19.255-5.656a57.812 57.812 0 0 1-6.606-1.568c.004-.24 2.07-.693 6.489.089a101.663 101.663 0 0 1 19.978 5.46Z" opacity=".5"/>
    <path fill="#F9E6CF" d="M20.805 59.587a29.349 29.349 0 0 1 8.948 3.557 41.19 41.19 0 0 1-9.275-2.29 65.858 65.858 0 0 1-9.166-2.634 23.099 23.099 0 0 1 9.493 1.367Z"/>
    <path fill="#7D7A7C" d="M33.841 70.483c6.295 1.7 11.97 3.598 16.071 4.96l4.887 1.716c.598.19 1.18.428 1.741.71a10.018 10.018 0 0 1-1.849-.368l-4.893-1.27c-4.209-1.053-9.992-2.541-16.29-3.967-7.634-1.719-13.42-2.932-17.325-3.672a38.824 38.824 0 0 1-5.927-.974c.004-.24 1.763-.835 5.71-.678a85.358 85.358 0 0 1 17.875 3.543Z" opacity=".5"/>
    <path fill="#F9E6CF" d="M21.89 68.086c2.83.281 5.582 1.1 8.105 2.413a33.905 33.905 0 0 1-8.329-1.076 43.895 43.895 0 0 1-8.217-1.727c2.809-.483 5.689-.35 8.441.39Z"/>
    <path fill="#7D7A7C" d="M47.226 58.437a149.018 149.018 0 0 1 11.45 6.443c1.43.878 2.587 1.615 3.403 2.176.422.256.82.549 1.19.875a7.482 7.482 0 0 1-1.365-.568l-3.616-1.767c-3.036-1.484-7.231-3.534-11.84-5.487a129.05 129.05 0 0 0-12.81-4.812 21.216 21.216 0 0 1-4.481-1.298c.003-.206 1.418-.736 4.502-.316a45.552 45.552 0 0 1 13.567 4.754Z" opacity=".5"/>
    <path fill="#F9E6CF" d="M38.276 55.085a13.73 13.73 0 0 1 5.899 3 21.248 21.248 0 0 1-6.329-1.735 30.658 30.658 0 0 1-6.15-2.214c2.239-.312 4.52.017 6.58.95Z"/>
    <path fill="#7D7A7C" d="M123.566 90.534c-5.132-1.375-9.691-1.953-9.654-2.158a10.293 10.293 0 0 1 2.955-.166c2.365-.01 4.728.16 7.067.509a14.69 14.69 0 0 1 7.172 2.812c1.391 1.221 1.549 2.288 1.307 2.388a51.314 51.314 0 0 0-8.847-3.385Z" opacity=".5"/>
    <path fill="#F9E6CF" d="M128.322 91.698c-1.707-.71-3.174-1.348-3.066-1.724.108-.377 1.72-.286 3.426.493 1.706.779 3.027 2.136 2.714 2.407-.313.27-1.366-.5-3.074-1.176Z"/>
    <path fill="#7D7A7C" d="M105.074 51.671a222.225 222.225 0 0 1-3.593 11.699l-1.283 3.417c-.145.44-.335.863-.567 1.264a6.53 6.53 0 0 1 .225-1.371c.184-.891.475-2.124.805-3.665.729-3.081 1.714-7.293 2.67-11.918 1.141-5.583 1.953-9.763 2.438-12.573.128-1.454.412-2.89.849-4.282.274.004.841 1.248.835 4.168a53.387 53.387 0 0 1-2.379 13.261Z" opacity=".5"/>
    <path fill="#F9E6CF" d="M106.739 42.934a13.218 13.218 0 0 1-1.832 5.884 16.187 16.187 0 0 1 .53-6.107c.147-2.04.591-4.048 1.318-5.96a11.166 11.166 0 0 1-.016 6.183Z"/>
    <path fill="#7D7A7C" d="M134.493 49.806a1275.762 1275.762 0 0 0-10.603 9.542c-1.356 1.184-2.502 2.165-3.267 2.875a9.14 9.14 0 0 1-1.284.979 6.578 6.578 0 0 1 1.013-1.291l2.962-3.189c2.578-2.678 6.062-6.34 9.891-10.17 9.299-9.56 14.782-13.778 15.122-13.533.34.245-3.367 5.175-13.834 14.787Z" opacity=".5"/>
    <path fill="#F9E6CF" d="M141.701 42.45a20.078 20.078 0 0 1-5.658 4.492c-.271-.278 1.822-2.689 4.641-5.432a19.54 19.54 0 0 1 5.796-4.49 19.68 19.68 0 0 1-4.779 5.43Z"/>
    <path fill="#7D7A7C" d="m140.822 61.538-13.62 6.684-4.184 2.107a7.762 7.762 0 0 1-1.589.7c.444-.377.92-.715 1.421-1.012l3.949-2.488c3.462-2.082 7.999-4.871 13.189-7.754a94.059 94.059 0 0 1 14.688-6.91c3.45-1.224 5.443-1.3 5.474-1.059.031.241-1.42.874-4.531 2.377l-14.797 7.355Z" opacity=".5"/>
    <path fill="#F9E6CF" d="M150.541 56.415a25.402 25.402 0 0 1-7.146 2.788 19.98 19.98 0 0 1 6.579-3.998 17.985 17.985 0 0 1 7.312-2.373 29.15 29.15 0 0 1-6.745 3.583Z"/>
    <path fill="#7D7A7C" d="M68.662 55.26a93.31 93.31 0 0 1 6.48 8.23 24.961 24.961 0 0 1 2.25 3.672 28.46 28.46 0 0 1-3.046-3.167c-1.794-1.948-4.297-4.662-7.144-7.45a90.75 90.75 0 0 0-8.04-7.185c-1.868-1.469-2.994-1.965-2.922-2.239.073-.274 1.31-.394 3.424.734a30.902 30.902 0 0 1 8.998 7.406Z" opacity=".5"/>
    <path fill="#F9E6CF" d="M62.996 50.236c2.241 1.852 3.657 3.76 3.38 3.997-.279.237-2.08-1.162-4.252-2.978-2.173-1.816-4.044-3.113-3.901-3.488.142-.376 2.533.55 4.773 2.47Z"/>
    <path fill="#7D7A7C" d="M37.002 45.278c5.72 3.513 10.72 7.017 14.29 9.642 1.802 1.295 3.401 2.382 4.214 3.183.537.371 1.037.792 1.494 1.258a10.503 10.503 0 0 1-1.704-.986l-4.46-2.774c-3.78-2.354-8.955-5.55-14.75-8.584A147.606 147.606 0 0 0 19.92 38.93a38.648 38.648 0 0 1-5.737-2.277c.003-.24 1.928-.42 5.863.63a67.828 67.828 0 0 1 16.956 7.995Z" opacity=".5"/>
    <path fill="#F9E6CF" d="M25.816 39.697a22.455 22.455 0 0 1 7.424 4.499 37.483 37.483 0 0 1-7.956-3.27 59.792 59.792 0 0 1-7.815-3.541c2.924.107 5.783.9 8.346 2.313Z"/>
    <path fill="#7D7A7C" d="M77.645 48.72a79.028 79.028 0 0 1 4.543 9.233 25.223 25.223 0 0 1 1.558 4.11 30.123 30.123 0 0 1-2.284-3.742 223.862 223.862 0 0 0-5.511-8.766 47.43 47.43 0 0 0-6.755-8.2c-1.765-1.535-2.927-1.929-2.889-2.203.038-.274 1.346-.497 3.63.771a23.766 23.766 0 0 1 7.708 8.796Z" opacity=".5"/>
    <path fill="#F9E6CF" d="M72.713 42.744c1.996 2.191 3.066 4.336 2.754 4.537-.312.202-1.833-1.536-3.73-3.486-1.896-1.95-3.66-3.485-3.554-3.69.105-.204 2.705.518 4.53 2.639Z"/>
    <path fill="#7D7A7C" d="M46.815 43.282c5.367 4.299 10.185 8.556 13.3 11.69a128.884 128.884 0 0 1 3.863 3.797c.507.445.96.947 1.353 1.496-.55-.37-1.072-.779-1.563-1.224l-4.21-3.493c-3.394-2.863-8.353-6.812-13.826-10.872a146.662 146.662 0 0 0-15.45-10.139c-3.648-1.973-5.702-2.414-5.663-2.722.038-.309 2.066-.419 5.96 1.112a67.05 67.05 0 0 1 16.236 10.355Z" opacity=".5"/>
    <path fill="#F9E6CF" d="M36.2 36.13a23.624 23.624 0 0 1 6.792 5.52 40.023 40.023 0 0 1-7.494-4.396c-4.12-2.599-7.67-4.09-7.561-4.535a17.884 17.884 0 0 1 8.263 3.41Z"/>
    <path fill="#7D7A7C" d="M59.537 39.575c3.717 4.379 6.75 8.542 9.146 11.598l2.663 3.678c.35.434.643.912.873 1.42a11.31 11.31 0 0 1-1.185-1.184l-2.975-3.476c-2.536-2.817-5.985-6.746-9.911-10.887-4.706-4.908-8.365-8.565-10.91-10.73a40.905 40.905 0 0 1-3.936-3.489c.004-.274 1.751.024 4.643 1.988a62.77 62.77 0 0 1 11.592 11.082Z" opacity=".5"/>
    <path fill="#F9E6CF" d="M51.949 32.017a17.722 17.722 0 0 1 4.694 5.766c-2.102-1.31-4-2.921-5.635-4.783a38.256 38.256 0 0 1-5.217-5.19 14.558 14.558 0 0 1 6.158 4.207Z"/>
    <path fill="#7D7A7C" d="M90.012 25.702a255.96 255.96 0 0 1 1.8 16.582c.176 2.132.29 3.885.376 5.123.043.63.035 1.261-.026 1.889a15.517 15.517 0 0 1-.387-1.86c-.19-1.205-.475-2.927-.824-5.027-.628-4.268-1.579-10.086-2.694-16.388-1.441-7.645-2.702-13.365-3.714-17.226-1.011-3.861-1.916-5.522-1.707-5.691.208-.169 1.632 1.156 3.093 4.817a78.645 78.645 0 0 1 4.083 17.78Z" opacity=".5"/>
    <path fill="#F9E6CF" d="M87.393 13.884a22.919 22.919 0 0 1 1.088 8.328 31.231 31.231 0 0 1-2.363-8.002 53.945 53.945 0 0 1-1.847-8.098 17.177 17.177 0 0 1 3.122 7.772Z"/>
    <path fill="#7D7A7C" d="M71.33 35.958a124.496 124.496 0 0 1 4.82 11.608c.563 1.519.993 2.727 1.292 3.452.187.442.319.905.393 1.38a4.67 4.67 0 0 1-.702-1.384l-1.739-3.459c-1.437-2.836-3.339-6.916-5.722-10.933a117.226 117.226 0 0 0-6.716-11.05c-1.616-2.358-2.737-3.266-2.63-3.47.105-.206 1.613.021 3.677 2.248a42.08 42.08 0 0 1 7.327 11.608Z" opacity=".5"/>
    <path fill="#F9E6CF" d="M66.628 28.233a12.95 12.95 0 0 1 2.6 5.703c-.346.202-1.86-2.12-3.743-4.963a28.787 28.787 0 0 1-3.362-5.233c.349-.407 2.622 1.547 4.505 4.493Z"/>
    <path fill="#7D7A7C" d="M71.73 29.333c2.887 7.254 5.164 14.017 6.607 18.95l1.808 5.898c.23.724.414 1.46.554 2.206a13.734 13.734 0 0 1-.899-2.073l-2.153-5.732c-1.892-4.835-4.514-11.432-7.645-18.517a148.401 148.401 0 0 0-9.667-18.716c-2.521-3.95-4.39-5.453-4.25-5.657.14-.204 2.327.616 5.298 4.332a79.46 79.46 0 0 1 10.346 19.31Z" opacity=".5"/>
    <path fill="#F9E6CF" d="M65.209 16.5a29.202 29.202 0 0 1 3.89 9.328 56.437 56.437 0 0 1-5.066-8.691C61.42 12.292 58.79 8.717 59 8.48a21.466 21.466 0 0 1 6.208 8.02Z"/>
    <path fill="#7D7A7C" d="M64.812 37.964c3.351 6.057 6.33 11.731 8.402 15.882.967 2.074 1.802 3.803 2.37 4.979.301.606.568 1.229.798 1.866-.42-.533-.79-1.101-1.11-1.699l-2.821-4.607c-2.35-3.982-5.57-9.488-9.233-15.344-4.434-7.24-7.9-12.371-10.36-15.84-2.458-3.469-3.983-5-3.842-5.24.14-.238 1.983.646 4.824 3.81a94.044 94.044 0 0 1 10.972 16.193Z" opacity=".5"/>
    <path fill="#F9E6CF" d="M57.613 27.08a26.999 26.999 0 0 1 4.355 7.925 37.545 37.545 0 0 1-5.43-7.15 58.707 58.707 0 0 1-4.945-7.488 21.43 21.43 0 0 1 6.02 6.712Z"/>
    <path fill="#7D7A7C" d="M57.309 91.964c3.048-.585 6.126-1.001 9.22-1.248 1.292-.09 2.59-.072 3.879.053a23.41 23.41 0 0 1-3.649.637c-2.307.518-5.51 1.23-8.889 2.214-4.102 1.18-7.104 2.239-9.072 3.002-1.968.763-3.004 1.23-3.14 1.09-.135-.139.393-1.093 2.197-2.408a28.353 28.353 0 0 1 9.454-3.34Z" opacity=".5"/>
    <path fill="#F9E6CF" d="M50.928 94.04c2.45-.928 4.548-1.14 4.647-.795.098.345-1.836 1.143-4.149 2.039-1.208.43-2.21.897-3.037 1.092-.826.195-1.242.464-1.377.29-.135-.173.248-.58.942-1.12.938-.601 1.935-1.105 2.974-1.505Z"/>
    <path fill="#7D7A7C" d="M33.103 96.854c5.28-1.25 10.623-2.22 16.006-2.907 2.099-.28 3.784-.464 4.953-.55a10.296 10.296 0 0 1 1.853.025l-1.791.456-4.856 1.033c-4.098.871-9.712 2.1-15.71 3.838a90.644 90.644 0 0 0-15.81 6.002c-3.458 1.807-4.644 3.199-4.882 3.024-.238-.175.575-1.881 3.73-4.174a48.063 48.063 0 0 1 16.507-6.747Z" opacity=".5"/>
    <path fill="#F9E6CF" d="M21.992 100.824a19.977 19.977 0 0 1 7.927-2.124 37.034 37.034 0 0 1-7.394 3.334c-4.008 1.765-7.158 3.646-7.464 3.401-.305-.244 2.683-2.814 6.93-4.611Z"/>
    <path fill="#7D7A7C" d="M31.527 94.084c7.087-1.036 13.586-1.669 18.33-2.05l5.637-.439 2.094.03c-.659.215-1.34.356-2.032.418l-5.574.885c-4.715.726-11.184 1.737-18.174 3.187-8.435 1.602-14.772 2.992-18.943 4.172-4.17 1.179-6.14 2.08-6.275 1.872-.134-.208 1.362-1.665 5.369-3.362a90.06 90.06 0 0 1 19.568-4.713Z" opacity=".5"/>
    <path fill="#F9E6CF" d="M18.61 96.965a27.458 27.458 0 0 1 9.186-1.249 40.847 40.847 0 0 1-8.997 2.591c-2.946.9-5.95 1.593-8.991 2.076a22.443 22.443 0 0 1 8.803-3.418Z"/>
    <path fill="#7D7A7C" d="M29.639 79.013c6.855.85 12.852 1.756 17.134 2.501l5.275.931a10.99 10.99 0 0 1 1.951.44c-.663.05-1.33.041-1.99-.028l-5.351-.451-17.39-1.475C21.14 80.305 15 79.843 10.882 79.65c-2.09.025-4.179-.13-6.243-.463.004-.24 1.799-.937 5.854-1.157 6.398-.203 12.802.126 19.147.984Z" opacity=".5"/>
    <path fill="#F9E6CF" d="M17.012 78.29c2.954-.075 5.899.36 8.704 1.287a33.636 33.636 0 0 1-8.79.052 44.615 44.615 0 0 1-8.711-.806 22.31 22.31 0 0 1 8.797-.532Z"/>
    <path fill="#7D7A7C" d="M101.299 54.058a286.244 286.244 0 0 1-2.644 10.029 30.924 30.924 0 0 1-1.362 4.172 26.45 26.45 0 0 1 .54-4.32c.414-2.674 1.013-6.307 1.651-10.283a67.25 67.25 0 0 1 3.013-14.386c.584-.027 1.275 4.689-1.198 14.788Z" opacity=".5"/>
    <path fill="#F9E6CF" d="M102.397 46.585c-.452 2.879-1.203 5.102-1.58 5.028a11.677 11.677 0 0 1 .072-5.22c.109-1.761.564-3.482 1.339-5.066.549.042.654 2.413.169 5.258Z"/>
    <path fill="#7D7A7C" d="M97.038 36.722c-.5 6.485-1.097 12.42-1.602 16.74-.27 2.161-.466 3.91-.62 5.11a7.148 7.148 0 0 1-.335 1.885c-.049-.629-.04-1.261.026-1.889l.07-5.151c.06-4.362.348-10.3.574-16.79.313-7.828.497-13.733.655-17.75-.075-2.013.08-4.028.46-6.005.62-.13 2.169 7.105.772 23.85Z" opacity=".5"/>
    <path fill="#F9E6CF" d="M97.273 24.565a24.566 24.566 0 0 1-.974 8.402 30.927 30.927 0 0 1-.365-8.42 35.74 35.74 0 0 1 .63-8.408 22.161 22.161 0 0 1 .709 8.426Z"/>
    <path fill="#7D7A7C" d="M101.869 34.967c-1.015 6.444-2.057 12.338-2.905 16.586-.338 2.125-.808 3.87-.825 5.073a16.473 16.473 0 0 1-.471 1.848 7.214 7.214 0 0 1 .025-1.889c.017-1.236.316-2.984.552-5.145.505-4.321 1.17-10.289 1.911-16.702.862-7.82 1.526-13.72 1.993-17.698.068-2.028.372-4.041.906-6 .585-.06 1.583 7.305-1.186 23.927Z" opacity=".5"/>
    <path fill="#F9E6CF" d="M103.1 22.824a25.525 25.525 0 0 1-1.591 8.325 28.653 28.653 0 0 1 .288-8.446 36.067 36.067 0 0 1 1.247-8.365c.548 2.8.566 5.679.056 8.486Z"/>
    <path fill="#7D7A7C" d="M111.057 53.642c-1.734 3.72-3.531 7.097-4.698 9.52a31.076 31.076 0 0 1-2.216 3.851c.364-1.442.854-2.85 1.466-4.205a890.123 890.123 0 0 1 3.74-9.876 120.507 120.507 0 0 1 5.512-13.871c.687.01.619 4.99-3.804 14.581Z" opacity=".5"/>
    <path fill="#F9E6CF" d="M113.594 46.395c-.999 2.768-2.162 4.882-2.503 4.74.023-1.794.446-3.56 1.238-5.17.999-2.734 1.819-4.922 2.196-4.848a9.626 9.626 0 0 1-.931 5.278Z"/>
    <path fill="#7D7A7C" d="M102.981 121.856c-.671-3.651-1.451-6.891-2.103-9.441a31.099 31.099 0 0 1-.975-3.998s.235.346.57 1.004c.334.657.7 1.555 1.199 2.73a78.196 78.196 0 0 1 3.1 9.317c2.417 9.033.493 14.159-.19 13.909-.684-.25-.202-.312-.229-.827a22.696 22.696 0 0 1-.207-2.442 84.422 84.422 0 0 0-1.165-10.252Z" opacity=".5"/>
    <path fill="#F9E6CF" d="M104.295 128.675c-.343-1.61-.32-3.277.067-4.877.378.005 1.071 2.041 1.309 4.758.237 2.717-.309 4.977-.686 4.937a14.395 14.395 0 0 1-.69-4.818Z"/>
    <path fill="#7D7A7C" d="m104.872 141.736-3.863-16.301a342.28 342.28 0 0 1-1.133-5.03 13.256 13.256 0 0 1-.352-1.86 9.67 9.67 0 0 1 .697 1.761 192.89 192.89 0 0 0 1.615 4.9 464.766 464.766 0 0 1 4.794 16.073c4.394 15.14 4.69 23.56 4.038 23.552a20.248 20.248 0 0 1-1.608-5.416c-.909-3.859-2.273-9.546-4.188-17.679Z" opacity=".5"/>
    <path fill="#F9E6CF" d="M107.94 153.457a30.39 30.39 0 0 1-1.294-8.33 24.759 24.759 0 0 1 2.602 8.039 22.641 22.641 0 0 1 .984 8.395 34.802 34.802 0 0 1-2.292-8.104Z"/>
    <path fill="#7D7A7C" d="M111.275 130.488c-1.922-5.076-3.85-9.671-5.246-13.056l-1.625-4.213a10.286 10.286 0 0 1-.529-1.485s.371.452.874 1.352l2.043 3.806a210.139 210.139 0 0 1 6.178 12.692 69.856 69.856 0 0 1 4.991 14.186c.708 3.445.445 5.159.204 5.156-.24-.004-1.744-5.555-6.89-18.438Z" opacity=".5"/>
    <path fill="#F9E6CF" d="M115.133 139.678a22.176 22.176 0 0 1-1.829-6.895 16.962 16.962 0 0 1 3.106 6.397 14.743 14.743 0 0 1 1.314 6.888 28.6 28.6 0 0 1-2.591-6.39Z"/>
    <path fill="#7D7A7C" d="M123.436 120.109c-2.253-3.466-4.583-6.349-6.27-8.536a39.2 39.2 0 0 1-2.7-3.472s.375.211.952.734c.576.523 1.39 1.29 2.372 2.265a84.326 84.326 0 0 1 7.136 7.999 28.975 28.975 0 0 1 5.493 10.105c.617 2.585.255 3.988-.054 3.984a84.697 84.697 0 0 0-6.929-13.079Z" opacity=".5"/>
    <path fill="#F9E6CF" d="M127.642 126.384c-1.304-2.56-2.443-4.671-2.131-4.873.312-.202 1.935 1.607 3.375 4.271 1.44 2.665 1.68 5.21 1.302 5.274-.379.063-1.208-2.112-2.546-4.672Z"/>
    <path fill="#7D7A7C" d="M119.848 103.743c-2.239-1.989-4.447-3.702-6.044-4.926a16.317 16.317 0 0 1-2.581-2.096c1.06.346 2.079.81 3.037 1.38a53.59 53.59 0 0 1 6.81 4.216 18.547 18.547 0 0 1 5.82 6.297c.867 1.833.714 2.964.474 2.995-.241.031-1.714-2.737-7.516-7.866Z" opacity=".5"/>
    <path fill="#F9E6CF" d="M124.022 107.372c-1.386-1.599-2.535-2.92-2.291-3.225.245-.306 1.811.643 3.401 2.347 1.591 1.705 2.082 3.464 1.735 3.665-.346.201-1.425-1.222-2.845-2.787Z"/>
    <path fill="#7D7A7C" d="M135.5 86.644c-4.01-.535-7.75-.758-10.494-.968a33.683 33.683 0 0 1-4.425-.37 24.345 24.345 0 0 1 4.436-.454c2.749-.134 6.493-.255 10.645-.06 3.856.025 7.665.837 11.196 2.386 2.422 1.166 3.054 2.686 2.846 2.787-.207.1-1.022-.564-3.417-1.215a63.947 63.947 0 0 0-10.787-2.106Z" opacity=".5"/>
    <path fill="#F9E6CF" d="M142.905 87.501c-2.772-.656-5.1-1.169-5.061-1.546a9.165 9.165 0 0 1 5.388.246c2.944.624 5.018 2.164 4.808 2.47a30.091 30.091 0 0 1-5.135-1.17Z"/>
    <path fill="#7D7A7C" d="M113.976 61.102c-1.994 2.687-3.847 5.134-5.243 6.798a20.857 20.857 0 0 1-2.339 2.785c.423-1.196.98-2.341 1.66-3.412a233.422 233.422 0 0 1 4.395-7.463c4.179-6.813 7.003-9.934 7.583-9.652.58.283-.913 4.007-6.056 10.944Z" opacity=".5"/>
    <path fill="#F9E6CF" d="M117.242 55.788c-1.332 1.974-2.656 3.399-2.963 3.223-.306-.176.508-1.986 1.84-3.96s2.656-3.398 2.963-3.223c.306.176-.508 1.986-1.84 3.96Z"/>
    <path fill="#7D7A7C" d="m141.629 65.293-13.537 5.655-4.179 1.729a9.078 9.078 0 0 1-1.553.597s.486-.371 1.386-.909l3.978-2.178c3.458-1.773 7.99-4.185 13.175-6.69a82.74 82.74 0 0 1 14.704-5.57c3.445-.846 5.365-.648 5.361-.373-.003.275-1.45.633-4.592 1.827-3.141 1.193-7.94 3.154-14.743 5.912Z" opacity=".5"/>
    <path fill="#F9E6CF" d="M151.336 61.063a24.55 24.55 0 0 1-6.896 2.104 18.97 18.97 0 0 1 6.604-3.344 15.922 15.922 0 0 1 7.267-1.618 31.501 31.501 0 0 1-6.975 2.858Z"/>
    <path fill="#7D7A7C" d="M134.452 128.091c-4.088-4.899-8.012-9.247-10.853-12.411l-3.382-3.791a12.682 12.682 0 0 1-1.182-1.424 9.742 9.742 0 0 1 1.46 1.188l3.695 3.485c3.119 2.963 7.322 6.97 11.651 11.77a78.296 78.296 0 0 1 10.764 13.888c2.013 3.462 2.327 5.596 2.086 5.662-.241.065-1.045-1.457-3.373-4.478-2.328-3.02-5.56-7.667-10.866-13.889Z" opacity=".5"/>
    <path fill="#F9E6CF" d="M142.192 137.094a32.933 32.933 0 0 1-4.644-6.934 22.056 22.056 0 0 1 5.72 6.056 18.487 18.487 0 0 1 4.056 7.269 49.977 49.977 0 0 1-5.132-6.391Z"/>
    <path fill="#7D7A7C" d="M123.077 136.249c-2.437-5.083-4.916-9.617-6.691-12.905l-2.212-3.912a7.706 7.706 0 0 1-.77-1.487c.4.384.751.816 1.047 1.285.641.867 1.586 2.083 2.628 3.677a144.622 144.622 0 0 1 7.727 12.506 53.845 53.845 0 0 1 5.706 14.609c.537 3.442.407 5.364-.073 5.358a17.386 17.386 0 0 1-1.516-4.658 131.295 131.295 0 0 0-5.846-14.473Z" opacity=".5"/>
    <path fill="#F9E6CF" d="M127.549 145.722a28.835 28.835 0 0 1-2.24-6.901 16.661 16.661 0 0 1 3.344 6.504 40.22 40.22 0 0 1 1.373 5.068l-.03 2.233c-.001.034-.471-.762-.866-2.004-.395-1.243-.886-3.001-1.581-4.9Z"/>
    <path fill="#7D7A7C" d="M122.117 78.457c-4.644.624-8.539 1.67-8.605 1.463a11.682 11.682 0 0 1 2.318-1.205 43.621 43.621 0 0 1 6.071-2.081 12.495 12.495 0 0 1 6.871-.215c1.605.606 2.039 1.539 1.865 1.708-.174.17-.824-.01-2.06-.028a37.132 37.132 0 0 0-6.46.358Z" opacity=".5"/>
    <path fill="#F9E6CF" d="M126.35 77.725c-1.613-.022-3.021-.041-3.084-.42-.064-.379 1.282-.91 3.068-.92 1.785-.01 3.423.768 3.04 1.107-.382.338-1.409.152-3.024.233Z"/>
    <path fill="#7D7A7C" d="m126.68 48.635-8.518 10.188-2.651 3.021a7.404 7.404 0 0 1-1.079 1.085c.228-.391.497-.756.805-1.089l2.312-3.403 7.704-10.887c7.316-10.205 11.842-14.746 12.25-14.431.407.315-2.373 5.223-10.823 15.516Z" opacity=".5"/>
    <path fill="#F9E6CF" d="M132.349 40.846c-2.237 2.923-4.293 5.094-4.599 4.883a18.123 18.123 0 0 1 3.512-5.722c2.272-2.924 4.328-5.094 4.634-4.884a17.174 17.174 0 0 1-3.547 5.723Z"/>
    <path fill="#7D7A7C" d="M117.171 40.913c-2.963 5.73-5.713 10.983-7.688 14.838-1.022 1.875-1.867 3.409-2.431 4.5a15.474 15.474 0 0 1-.984 1.636c.174-.61.4-1.205.677-1.777a208.273 208.273 0 0 1 1.987-4.713c1.771-3.926 4.146-9.39 6.802-15.296 6.41-14.237 10.591-21.153 11.103-20.94.512.213-1.88 6.913-9.466 21.752Z" opacity=".5"/>
    <path fill="#F9E6CF" d="M122.163 29.955a26.26 26.26 0 0 1-4.22 7.224 26.28 26.28 0 0 1 3.026-7.825 26.449 26.449 0 0 1 4.22-7.259 25.998 25.998 0 0 1-3.026 7.86Z"/>
    <path fill="#7D7A7C" d="M131.336 97.374a69.942 69.942 0 0 0-8.193-3.548 25.258 25.258 0 0 1-3.415-1.352 4.637 4.637 0 0 1 1.03.014c.921.103 1.835.253 2.741.45a50.608 50.608 0 0 1 8.72 2.627 18.887 18.887 0 0 1 7.957 5.708c.439.735.83 1.497 1.17 2.283l-.013.962a41.214 41.214 0 0 0-9.997-7.144Z" opacity=".5"/>
    <path fill="#F9E6CF" d="M136.857 100.369a22.964 22.964 0 0 1-2.446-1.889c-.68-.49-1.019-.872-.948-1.043.071-.17.618.008 1.405.225a20.086 20.086 0 0 1 2.828 1.653c.836.712 1.575 1.531 2.198 2.435.402.761.566 1.279.428 1.38-.139.101-.581-.214-1.123-.771s-1.495-1.154-2.342-1.99Z"/>
    <path fill="#7D7A7C" d="M147.67 95.57c-5.818-1.385-11.23-2.386-15.134-3.092l-4.693-.855c-.58-.09-1.152-.224-1.711-.4a11.374 11.374 0 0 1 1.75.023l4.733.408c4.013.399 9.498.99 15.424 2.1a56.15 56.15 0 0 1 15.865 4.924c3.41 1.764 4.485 3.496 4.31 3.734-.175.238-1.43-.878-4.676-2.125a111.087 111.087 0 0 0-15.868-4.717Z" opacity=".5"/>
    <path fill="#F9E6CF" d="M158.451 98.157a30.59 30.59 0 0 1-7.242-2.744c2.629-.05 5.241.442 7.672 1.444a14.758 14.758 0 0 1 6.816 3.735 70.705 70.705 0 0 1-7.246-2.435Z"/>
    <path fill="#7D7A7C" d="M114.863 36.485c-2.495 6.63-4.879 12.711-6.69 17.084a425.458 425.458 0 0 0-2.165 5.191 8.098 8.098 0 0 1-.919 1.877c.155-.672.348-1.334.577-1.984.395-1.3 1.004-3.113 1.721-5.37 1.504-4.514 3.581-10.703 5.733-17.406l6.158-18.431a28.628 28.628 0 0 1 2.385-6.15c.582.076-.282 8.034-6.8 25.189Z" opacity=".5"/>
    <path fill="#F9E6CF" d="M118.882 23.796a29.99 29.99 0 0 1-3.551 8.539 36.094 36.094 0 0 1 2.286-8.935 39.213 39.213 0 0 1 3.243-8.612 26.57 26.57 0 0 1-1.978 9.008Z"/>
    <path fill="#7D7A7C" d="M132.616 109.173c-3.404-2.142-6.298-3.967-8.546-5.269a36.422 36.422 0 0 1-3.644-2.214c.377.058.746.167 1.094.324.718.25 1.709.607 2.903 1.139a82.987 82.987 0 0 1 9.176 4.488 32.635 32.635 0 0 1 8.56 6.747c1.518 2.047 1.948 3.221 1.67 3.458-.278.236-2.98-3.029-11.213-8.673Z" opacity=".5"/>
    <path fill="#F9E6CF" d="M138.57 113.171c-2.173-1.747-3.87-3.248-3.66-3.485.209-.238 2.291.684 4.498 2.466.916.8 1.765 1.673 2.54 2.611.538.832.771 1.384.632 1.486-.139.101-.649-.215-1.294-.808-.644-.593-1.629-1.396-2.716-2.27Z"/>
    <path fill="#7D7A7C" d="M155.684 79.57c-4.154-.057-8.006.405-10.825.642a38.07 38.07 0 0 1-4.572.315 3.923 3.923 0 0 1 1.173-.396l3.273-.746c3.59-.75 7.22-1.296 10.873-1.637a31.434 31.434 0 0 1 11.734.641c2.633.826 3.647 1.974 3.405 2.142-.243.169-1.236-.017-3.599-.496a72.413 72.413 0 0 0-11.462-.465Z" opacity=".5"/>
    <path fill="#F9E6CF" d="M163.482 79.298a14.726 14.726 0 0 1-5.415-.76 9.921 9.921 0 0 1 5.502-.578c3.088.214 5.477 1.277 5.334 1.653-1.813.105-3.632 0-5.421-.315Z"/>
    <path fill="#7D7A7C" d="m150.952 71.535-11.163 2.802-3.446.846c-.826.195-1.274.291-1.308.222a6.87 6.87 0 0 1 1.21-.567l3.28-1.295c2.796-1.06 6.66-2.416 10.902-3.767a61.333 61.333 0 0 1 12.021-2.755c2.786-.271 4.258.058 4.219.367a116.14 116.14 0 0 1-15.715 4.147Z" opacity=".5"/>
    <path fill="#F9E6CF" d="M158.915 69.308a13.73 13.73 0 0 1-5.779.746 12.32 12.32 0 0 1 5.453-2.055 10.916 10.916 0 0 1 5.843-.367 17.167 17.167 0 0 1-5.517 1.676Z"/>
    <path fill="#7D7A7C" d="M140.222 50.194c-4.056 2.83-7.733 5.528-10.403 7.45l-3.191 2.326a5.427 5.427 0 0 1-1.247.773 6.889 6.889 0 0 1 1.01-1.051l2.921-2.674a201.143 201.143 0 0 1 9.832-8.316 62.645 62.645 0 0 1 11.468-7.537c2.834-1.336 4.586-1.38 4.583-1.14-.003.24-1.11.81-3.467 2.426s-6.237 4.105-11.506 7.743Z" opacity=".5"/>
    <path fill="#F9E6CF" d="M147.646 44.696a17.686 17.686 0 0 1-5.674 3.083c-.202-.312 1.954-2.275 4.934-4.226a12.356 12.356 0 0 1 5.942-2.633c.167.346-2.257 1.824-5.202 3.776Z"/>
    <path fill="#7D7A7C" d="M149.471 101.984c-4.097-1.705-7.994-2.96-10.866-3.858l-3.42-1.043-1.23-.464 1.305.018c.824.012 2.056.303 3.426.562a95.14 95.14 0 0 1 11.291 2.937 28.441 28.441 0 0 1 10.974 6.024c2.066 2.09 2.422 3.675 2.146 3.774-.276.099-.983-.872-2.989-2.377a48.856 48.856 0 0 0-10.637-5.573Z" opacity=".5"/>
    <path fill="#F9E6CF" d="M157.05 105.214c-2.725-1.618-5.044-2.783-4.867-3.158 2 .113 3.924.808 5.535 1.999 2.862 1.654 4.548 3.91 4.201 4.145a43.24 43.24 0 0 1-4.869-2.986Z"/>
    <path fill="#7D7A7C" d="M132.929 121.407c-3.826-3.9-7.557-7.283-10.168-9.723l-3.393-2.932a7.283 7.283 0 0 1-1.153-1.115c.484.23.94.513 1.362.843.851.595 2.075 1.437 3.399 2.554 2.957 2.205 6.795 5.314 11.07 9.048a55.678 55.678 0 0 1 10.145 11.475c1.675 3.011 2.167 4.736 1.89 4.869-.276.134-1.152-1.115-3.039-3.717-1.888-2.602-5.134-6.288-10.113-11.302Z" opacity=".5"/>
    <path fill="#F9E6CF" d="M140.145 128.616c-2.535-2.955-4.597-5.387-4.318-5.658.278-.271 2.757 1.789 5.325 4.813a34.87 34.87 0 0 1 2.965 4.163c.602 1.141.832 1.935.693 2.036-.139.101-.68-.525-1.456-1.497-.776-.973-1.959-2.363-3.209-3.857Z"/>
    <path fill="#7D7A7C" d="M123.443 129.59c-2.347-4.12-4.631-7.861-6.276-10.598l-1.912-3.255a5.78 5.78 0 0 1-.636-1.245c.351.304.658.655.913 1.043.574.729 1.384 1.736 2.328 2.986 1.923 2.568 4.518 6.107 7.142 10.094 6.736 9.573 7.817 15.908 7.266 16.004-.55.095-2.583-4.433-8.825-15.029Z" opacity=".5"/>
    <path fill="#F9E6CF" d="M128.148 137.108a16.48 16.48 0 0 1-2.498-5.668c.312-.201 1.998 2.02 3.674 5.032a12.365 12.365 0 0 1 2.117 5.868c-.379.132-1.651-2.29-3.293-5.232Z"/>
    <path fill="#7D7A7C" d="M145.457 111.788c-3.407-2.005-6.579-3.525-8.895-4.896a26.92 26.92 0 0 1-3.749-2.078c1.402.326 2.774.77 4.102 1.327a94.981 94.981 0 0 1 9.423 4.01 30.027 30.027 0 0 1 9.013 6.272c1.726 1.879 1.944 3.462 1.738 3.459-.206-.003-.917-.699-2.684-2.098a84.44 84.44 0 0 0-8.948-5.996Z" opacity=".5"/>
    <path fill="#F9E6CF" d="M151.863 115.379c-2.279-1.611-4.114-2.976-3.901-3.488.213-.512 2.327.547 4.674 2.228 2.346 1.681 3.727 3.658 3.38 3.893-.347.236-1.908-1.056-4.153-2.633Z"/>
    <path fill="#7D7A7C" d="m137.256 56.165-10.396 6.9-3.188 2.12a5.9 5.9 0 0 1-1.211.705c.302-.362.64-.69 1.009-.983l2.884-2.502c2.432-2.062 5.869-4.832 9.721-7.768a64.743 64.743 0 0 1 11.291-7.093c2.696-1.303 4.313-1.487 4.378-1.246a151.028 151.028 0 0 1-14.488 9.867Z" opacity=".5"/>
    <path fill="#F9E6CF" d="M144.503 50.974c-2.874 1.816-5.299 3.363-5.533 2.879-.234-.485 1.918-2.173 4.828-4.022a11.978 11.978 0 0 1 5.735-2.532 20.614 20.614 0 0 1-5.03 3.675Z"/>
    <path fill="#7D7A7C" d="m75.412 149.165 4.728-14.259 1.467-4.377a5.603 5.603 0 0 1 .64-1.572 12.2 12.2 0 0 1-.298 1.679c-.255 1.062-.585 2.603-1.023 4.486-.91 3.767-2.183 8.97-3.633 14.584-3.62 13.691-7.144 20.204-7.724 19.921-.58-.283 1.218-6.201 5.843-20.462Z" opacity=".5"/>
    <path fill="#F9E6CF" d="M72.42 159.601a24.048 24.048 0 0 1 2.91-7.002 21.194 21.194 0 0 1-1.645 7.397 21.26 21.26 0 0 1-3.047 6.829 21.956 21.956 0 0 1 1.781-7.224Z"/>
    <path fill="#7D7A7C" d="M112.508 30.407c-1.755 5.266-3.571 10.016-4.855 13.467l-1.635 4.1c-.18.509-.405 1-.673 1.468.063-.5.174-.993.329-1.472l1.192-4.244c1.008-3.42 2.382-8.452 3.861-13.687 1.77-6.4 3.072-11.19 4.01-14.544a22.763 22.763 0 0 1 1.479-5.167c.24.003.596 1.588.174 4.88a88.766 88.766 0 0 1-3.882 15.199Z" opacity=".5"/>
    <path fill="#F9E6CF" d="M115.083 20.377a17.428 17.428 0 0 1-2.566 6.835 22.23 22.23 0 0 1 1.264-7.059 27.464 27.464 0 0 1 2.154-6.84 15.776 15.776 0 0 1-.852 7.064Z"/>
    <path fill="#7D7A7C" d="M129.114 51.45c-2.681 2.677-5.153 5.151-6.961 6.775A28.1 28.1 0 0 1 119.094 61a23.147 23.147 0 0 1 2.45-3.401c1.573-2.005 3.807-4.689 6.251-7.61 5.899-7.064 9.685-10.172 10.056-9.686.371.486-2.015 4.163-8.737 11.147Z" opacity=".5"/>
    <path fill="#F9E6CF" d="M133.549 46.015c-1.847 2.001-3.48 3.387-3.821 3.211-.341-.176.99-2.082 2.838-4.118 1.847-2.035 3.48-3.387 3.786-3.177.306.21-.99 2.082-2.803 4.084Z"/>
    <path fill="#7D7A7C" d="m124.946 42.325-8.506 11.837-2.659 3.605c-.322.45-.684.871-1.081 1.256.211-.512.47-1.003.775-1.466l2.285-3.85c2.001-3.202 4.705-7.63 7.655-12.4 7.266-11.545 11.839-17.013 12.281-16.698.442.316-2.312 5.843-10.75 17.716Z" opacity=".5"/>
    <path fill="#F9E6CF" d="M130.596 33.436a20.316 20.316 0 0 1-4.748 5.706 20.618 20.618 0 0 1 3.522-6.444 19.643 19.643 0 0 1 4.611-5.708 20.908 20.908 0 0 1-3.385 6.446Z"/>
  </g>
  <defs>
    <clipPath id="a">
      <path fill="#fff" d="m2.836.12 170.729 2.336-2.383 174.126L.453 174.246z"/>
    </clipPath>
  </defs>
</svg>
