<svg xmlns="http://www.w3.org/2000/svg" width="90" height="140" fill="none">
  <g clip-path="url(#a)" opacity=".8" style="mix-blend-mode:screen">
    <path fill="#7D7A7C" d="M27.408 68.763a4.44 4.44 0 0 1 2.545.035c-.637.514-1.334.95-2.076 1.299-1.338.795-2.31.538-2.468.183-.157-.354.262-1.27 1.999-1.517Z" opacity=".5"/>
    <path fill="#F9E6CF" d="M26.316 69.371c.436-.183.866.012.972.176.107.164-.17.621-.607.805-.436.183-.866-.012-.972-.176-.107-.164.144-.648.607-.805Z"/>
    <path fill="#7D7A7C" d="M29.077 75.397c.277-.77.354-1.6.222-2.408.01-.65-.447-.982-.365-1.035.082-.053.542.007.965.745.495.874.709 1.88.61 2.88-.199 2.707-1.485 3.692-1.808 3.552-.323-.14-.415-1.388.376-3.734Z" opacity=".5"/>
    <path fill="#F9E6CF" d="M28.835 77.209c.2-.675.613-1.184.856-1.127.243.058.37.71.142 1.439-.226.728-.693 1.21-.936 1.125-.243-.085-.234-.735-.062-1.437Z"/>
    <path fill="#7D7A7C" d="M23.71 61.858a3.956 3.956 0 0 1 1.215 2.265c.128.598.122 1.005-.013 1.003-.136-.002-.901-1.449-2.112-2.061-1.21-.613-2.305.158-2.543-.28-.237-.436.008-.541.366-.97.337-.253.73-.424 1.144-.499a2.221 2.221 0 0 1 1.944.542Z" opacity=".5"/>
    <path fill="#F9E6CF" d="M21.763 61.614c.786.01 1.35.37 1.21.613-.138.242-.573.344-1.034.42-.462.074-1.002-.014-1.138-.016-.135-.002.12-.812.962-1.017Z"/>
    <path fill="#7D7A7C" d="M16.97 65.558a4.71 4.71 0 0 1 3.78.838c-1.14.049-2.27.234-3.366.55-1.72.925-2.732 1.724-3.027 1.476-.294-.248-.236-.518.015-1.11a3.604 3.604 0 0 1 2.597-1.754Z" opacity=".5"/>
    <path fill="#F9E6CF" d="M15.221 66.672c.656-.451 1.308-.524 1.439-.224.131.3-.28.701-.8 1.073-.52.373-1.011.637-1.199.472-.187-.165-.016-.786.56-1.32Z"/>
    <path fill="#7D7A7C" d="M12.866 74.47a14.81 14.81 0 0 1 5.035-1.827s-2.05 1.353-4.24 3.058c-2.736 2.048-3.726 3.173-4.077 3.06-.35-.114-.29-.6.155-1.434a7.313 7.313 0 0 1 3.127-2.856Z" opacity=".5"/>
    <path fill="#F9E6CF" d="M10.728 76.338c.796-.721 1.613-1.035 1.799-.788.186.246-.364.889-1.078 1.556-.713.668-1.316 1.175-1.585 1.009-.269-.167.123-1.029.864-1.777Z"/>
    <path fill="#7D7A7C" d="M32.575 63.198a7.013 7.013 0 0 1-2.734 1.886c.429-.94.94-1.839 1.526-2.688.472-.86.642-1.373.777-1.372.136.002.003-.19.005-.352a.46.46 0 0 1 .005-.352s.36-.564 1.137.016a1.571 1.571 0 0 1 .196 1.547 3.82 3.82 0 0 1-.912 1.315Z" opacity=".5"/>
    <path fill="#F9E6CF" d="M33.33 61.529c-.254.728-.773.992-.987.826-.215-.165-.18-.68.015-1.11a.462.462 0 0 1 .004-.271.217.217 0 0 1 .002-.163l.006-.406a.352.352 0 0 1 .541.007c.125.146.224.312.291.492.071.201.114.412.127.625Z"/>
    <path fill="#7D7A7C" d="M26.565 57.1a9.865 9.865 0 0 1-1.467 4.234c-.162-.002.029-2.058.059-4.28a7.726 7.726 0 0 0-.505-2.716 2.302 2.302 0 0 1-.344-.6c-.133-.138-.186-.247-.157-.355.028-.108.466-.455 1.327.018a3.685 3.685 0 0 1 1.087 3.7Z" opacity=".5"/>
    <path fill="#F9E6CF" d="M26.056 54.71c.366.953-.023 1.68-.213 1.704-.19.024-.505-.684-.768-1.311-.262-.627-.29-.573-.313-.845a.57.57 0 0 1-.183-.517c.002-.135.3-.131.65.009.369.226.657.562.827.96Z"/>
    <path fill="#7D7A7C" d="M27.77 56.06c.438-2.242.845-4.296 1.137-5.836.107-.826.29-1.64.547-2.431.137.824.171 1.662.102 2.494-.021 1.544-.05 3.684-.326 5.983-.536 5.547-1.738 8.267-2.115 8.1-.377-.168-.534-2.555.655-8.31Z" opacity=".5"/>
    <path fill="#F9E6CF" d="M27.198 60.307c.266-1.623.716-2.89.987-2.859.27.03.333 1.386-.042 3.034-.374 1.648-.77 2.889-1.039 2.695-.268-.193.072-1.272.094-2.87Z"/>
    <path fill="#7D7A7C" d="M34.016 50.944a63.779 63.779 0 0 1-2.018 4.93 8.617 8.617 0 0 1-1.056 1.991c-.136-.002.75-3.376 1.671-7.347a42.14 42.14 0 0 1 1.911-7.045c.163.002.616.523.68 1.825a16.665 16.665 0 0 1-1.188 5.646Z" opacity=".5"/>
    <path fill="#F9E6CF" d="M34.772 47.134c-.29 1.459-.85 2.698-1.144 2.477-.295-.22-.172-1.276.037-2.709.21-1.433.576-2.512.874-2.508.298.004.551 1.281.233 2.74Z"/>
    <path fill="#7D7A7C" d="M12.456 70.78a11.343 11.343 0 0 1 5.128-.661c-.002.162-2.231.755-4.577 1.996-2.73 1.507-4.068 2.383-4.417 2.134-.349-.248-.127-.652.451-1.321a6.797 6.797 0 0 1 3.415-2.148Z" opacity=".5"/>
    <path fill="#F9E6CF" d="M10.189 72.212c.848-.612 1.716-.68 1.82-.436.106.246-.497.78-1.263 1.31-.766.532-1.475.875-1.688.628-.214-.247.257-.945 1.131-1.502Z"/>
    <path fill="#7D7A7C" d="M.646 63.032c2.131.179 4.24.57 6.294 1.17.882.17 1.735.464 2.534.874-.003.19-4.08-.651-8.875-.609-2.17.017-4.335.187-6.48.508-1.438.197-2.199.349-2.277.158-.08-.19.362-.78 1.805-1.33a14.565 14.565 0 0 1 6.999-.771ZM43.48 58.01l-5.267 2.854c-.707.456-1.456.845-2.236 1.161a10.614 10.614 0 0 1 1.891-1.68 69.87 69.87 0 0 1 4.816-3.593 19.987 19.987 0 0 1 5.78-2.847c1.47-.413 2.357.032 2.303.032-.055-.001-2.103 1.217-7.288 4.073Z" opacity=".5"/>
    <path fill="#F9E6CF" d="M47.085 55.783c-1.472.712-2.725 1.182-2.884.936-.159-.246.91-1.153 2.41-1.89 1.5-.739 2.937-.936 3.015-.637.077.3-1.095.852-2.541 1.591Z"/>
    <path fill="#7D7A7C" d="M43.616 65.869c-2.708-.037-5.042.31-5.067.147a13.726 13.726 0 0 1 5.005-1.584 4.465 4.465 0 0 1 4.103 1.004c.746.932.385 1.577.222 1.575-.162-.002-.456-.331-.994-.583a8.555 8.555 0 0 0-3.27-.56Z" opacity=".5"/>
    <path fill="#F9E6CF" d="M46.08 65.876c-.836-.229-1.645-.456-1.642-.727.004-.271.848-.585 1.928-.3 1.08.287 1.633 1.405 1.333 1.51-.299.104-.835-.283-1.618-.483Z"/>
    <path fill="#7D7A7C" d="M40.248 48.753c-1.326 1.933-2.758 3.647-3.56 4.883a11.615 11.615 0 0 1-1.652 1.928c.276-.801.64-1.569 1.087-2.288.75-1.399 1.778-3.254 2.783-5.381 2.828-4.811 4.483-7.01 4.808-7.006.325.005-.04 2.926-3.466 7.864Z" opacity=".5"/>
    <path fill="#F9E6CF" d="M42.305 44.907c-.833 1.452-1.74 2.496-1.982 2.33-.242-.166.236-1.406 1.068-2.858.832-1.451 1.605-2.497 1.874-2.385.27.112-.13 1.597-.96 2.913Z"/>
    <path fill="#7D7A7C" d="M25.235 41.476c.314 2.714.44 5.425.497 7.214.064 1.01.05 2.025-.042 3.034a17.744 17.744 0 0 1-.61-2.962c-.326-1.846-.725-4.345-1.284-7.035-.66-3.26-1.223-5.68-1.661-7.284-.439-1.604-.754-2.34-.59-2.473.165-.133.944.31 1.709 1.866a22.275 22.275 0 0 1 1.98 7.64Z" opacity=".5"/>
    <path fill="#F9E6CF" d="M23.977 36.392c.515 1.958.546 3.611.275 3.662-.272.05-.792-1.501-1.281-3.378-.49-1.876-.82-3.37-.819-3.533.003-.163 1.337 1.292 1.825 3.25Z"/>
    <path fill="#7D7A7C" d="M18.125 78.092a10.565 10.565 0 0 1 2.743-2.51 19.781 19.781 0 0 1-1.617 3.338 11.71 11.71 0 0 1-1.465 2.202c-.331.428-.686.64-.875.61-.19-.029-.374-.41-.283-1.087a5.42 5.42 0 0 1 1.497-2.553Z" opacity=".5"/>
    <path fill="#F9E6CF" d="M17.262 79.814c.361-.645.881-1.017 1.122-.852.242.166.125.76-.208 1.38-.333.618-.772.992-1.015.907-.242-.084-.287-.79.101-1.435Z"/>
    <path fill="#7D7A7C" d="m7.59 107.779 5.567-11.006 1.725-3.336c.203-.419.435-.823.693-1.21-.1.457-.25.9-.451 1.322-.31.835-.786 2.048-1.375 3.503-1.205 2.937-2.804 6.979-4.705 11.343-4.452 10.587-7.474 15.721-7.824 15.553-.35-.167 1.099-5.051 6.37-16.169Z" opacity=".5"/>
    <path fill="#F9E6CF" d="M4.2 115.942a18.076 18.076 0 0 1 3.026-5.378 18.962 18.962 0 0 1-2.084 5.824 18.367 18.367 0 0 1-2.998 5.378 18.503 18.503 0 0 1 2.056-5.824Z"/>
    <path fill="#7D7A7C" d="M2.132 110.766 8.95 99.344c.913-1.45 1.634-2.687 2.16-3.466.255-.44.542-.862.857-1.262a9.013 9.013 0 0 1-.615 1.374c-.418.888-1.058 2.126-1.81 3.66l-6.148 11.81c-5.784 11.003-9.486 16.344-9.835 16.122-.35-.221 1.835-5.421 8.572-16.816Z" opacity=".5"/>
    <path fill="#F9E6CF" d="M-2.344 119.212a20.407 20.407 0 0 1 3.705-5.558 21.863 21.863 0 0 1-2.792 6.085 22.603 22.603 0 0 1-3.705 5.558 20.952 20.952 0 0 1 2.792-6.085Z"/>
    <path fill="#7D7A7C" d="M-3.555 112.72c2.486-3.597 4.78-6.898 6.518-9.259l2.068-2.681c.496-.643.772-1.019.826-.99a6.841 6.841 0 0 1-.612 1.156l-1.747 2.983c-1.524 2.526-3.575 5.966-5.847 9.701-5.54 9.001-8.77 13.428-9.2 13.178-.43-.25 1.503-4.857 7.994-14.088ZM-.48 103.712l5.155-6.621a23.985 23.985 0 0 1 2.312-2.678 21.916 21.916 0 0 1-1.775 3.064C4.076 99.331 2.444 101.83.7 104.568c-4.288 6.58-7.118 9.522-7.467 9.3-.349-.221 1.131-3.507 6.287-10.156ZM.83 89.073c2.739-2.158 5.175-4.048 7.034-5.323a24.145 24.145 0 0 1 3.09-2.098s-.222.295-.688.749L8.29 84.243 1.79 90.251c-6.117 5.579-9.242 8.327-9.562 7.997-.32-.33 1.647-3.635 8.603-9.175Z" opacity=".5"/>
    <path fill="#F9E6CF" d="M-3.835 93.533c1.81-1.655 3.451-2.797 3.666-2.659.215.138-1.162 1.772-2.893 3.564-1.73 1.792-3.29 2.935-3.503 2.662-.213-.274.92-1.884 2.73-3.567Z"/>
    <path fill="#7D7A7C" d="M-12.075 103.906a389.963 389.963 0 0 1 9.84-8.454L.831 92.92a7.607 7.607 0 0 1 1.204-.878 6.606 6.606 0 0 1-1.017 1.097l-2.747 2.808c-2.415 2.324-5.736 5.53-9.305 9.03-4.355 4.221-7.693 7.355-10.014 9.4-2.276 2.055-3.482 3.068-3.615 2.931-.134-.137 2.856-4.865 12.587-13.402ZM-7.868 105.21l7.471-7.593 2.306-2.244c.276-.294.58-.562.905-.8a5.414 5.414 0 0 1-.691.993L.085 98.056l-6.773 8.036c-6.44 7.498-10.305 10.832-10.628 10.692-.323-.139 2.142-4.089 9.448-11.575ZM-10.4 94.338c3.832-2.928 7.413-5.318 10.147-7.204l3.143-2.07c.368-.29.772-.53 1.201-.716-.32.34-.67.652-1.042.934L.146 87.654l-9.558 7.727c-8.955 7.193-13.474 10.897-13.688 10.65-.213-.247 2.745-4.595 12.7-11.693ZM8.851 61.085c1.539.355 3.053.81 4.532 1.363a8.123 8.123 0 0 1 1.803.837c-.002.163-3.028-.42-6.571-.767a41.824 41.824 0 0 1-6.439-.522c.003-.217.307-.619 1.45-1.01a11.18 11.18 0 0 1 5.225.1Z" opacity=".5"/>
    <path fill="#F9E6CF" d="M5.522 60.985c1.327.018 2.351.412 2.32.682-.03.271-1.088.365-2.335.375-1.246.01-2.247-.03-2.325-.33-.077-.3.85-.747 2.34-.727Z"/>
    <path fill="#7D7A7C" d="M-.619 52.502a39.907 39.907 0 0 1 5.923 2.628c.81.396 1.575.88 2.282 1.44a15.97 15.97 0 0 1-2.562-.82 59.573 59.573 0 0 0-6.013-1.925 50.028 50.028 0 0 0-8.708-.986s.004-.271.387-.537a8.877 8.877 0 0 1 1.606-.601 13.752 13.752 0 0 1 7.085.801ZM-8.299 55.594c2.48.674 4.91 1.513 7.278 2.511.998.383 1.96.85 2.88 1.394a17.653 17.653 0 0 1-3.105-.774c-1.889-.486-4.506-1.226-7.37-1.7a49.929 49.929 0 0 0-7.789-.864 8.553 8.553 0 0 1-2.708-.037c.004-.244.58-.751 2.4-1.241a19.492 19.492 0 0 1 8.414.711ZM17.73 57.522c.87.56 1.6 1.311 2.136 2.197.424.656.58 1.118.526 1.145a22.127 22.127 0 0 0-3.303-2.05 5.63 5.63 0 0 0-2.406-.331c-.623-.009-1.002-.014-1.109-.151-.106-.137.01-.65.637-1.021a3.249 3.249 0 0 1 3.518.21Z" opacity=".5"/>
    <path fill="#F9E6CF" d="M15.405 57.192c.948.013 1.537.481 1.426.697-.111.215-.708.261-1.386.333-.678.072-1.273-.017-1.406-.182-.133-.164.444-.807 1.366-.848Z"/>
    <path fill="#7D7A7C" d="M18.26 48.452a35.021 35.021 0 0 1 2.437 5.995c.335.87.541 1.786.612 2.717-.162-.002-1.654-3.816-4.307-7.862a19.287 19.287 0 0 0-4.16-4.798c-1.098-.855-1.854-1.055-1.824-1.271.03-.217.793-.505 2.302.031a10.835 10.835 0 0 1 4.94 5.188Z" opacity=".5"/>
    <path fill="#F9E6CF" d="M15.223 44.808c1.31 1.291 1.885 2.735 1.669 2.732-.217-.003-1.207-.91-2.41-2.092-1.202-1.182-2.358-1.848-2.273-2.118.085-.27 1.678.132 3.014 1.478Z"/>
    <path fill="#7D7A7C" d="M44.103 75.765c-3.626-2.217-7.186-3.296-7.13-3.484.805.02 1.604.14 2.38.357 1.86.42 3.668 1.044 5.39 1.862a9.398 9.398 0 0 1 4.628 4.236c.208.505.346 1.035.412 1.577-.006.406-.008.596-.225.62-.217.024-.481-.494-1.226-1.453a16.249 16.249 0 0 0-4.229-3.715Z" opacity=".5"/>
    <path fill="#F9E6CF" d="M47.351 77.923c-.535-.522-1.043-.99-1.363-1.374-.32-.383-.56-.63-.477-.765.083-.134.434.006.92.148a10.21 10.21 0 0 1 1.662 1.242c1.175 1.236 1.452 2.73 1.181 2.726-.27-.003-.907-1.015-1.923-1.977Z"/>
    <path fill="#7D7A7C" d="M35.69 79.01c-.14-1.227-.48-2.421-1.008-3.537a4.985 4.985 0 0 1 2.447 3.258c.776 2.72-.408 4.086-.731 3.973-.324-.113-.633-1.282-.708-3.695Z" opacity=".5"/>
    <path fill="#F9E6CF" d="M36.044 80.803c.01-.705.018-1.3.452-1.35.434-.047.642.579.605 1.364-.038.786-.344 1.378-.642 1.346-.297-.03-.423-.737-.415-1.36Z"/>
    <path fill="#7D7A7C" d="M30.432 89.152a42.118 42.118 0 0 0-.822-7.191c.441.59.771 1.256.975 1.964a19.298 19.298 0 0 1 1.256 5.192 11.87 11.87 0 0 1-.781 5.625c-.504 1.212-1.052 1.666-1.214 1.61-.161-.057.275-2.246.586-7.2Z" opacity=".5"/>
    <path fill="#F9E6CF" d="M30.383 92.782c.208-1.379.494-2.486.765-2.482.27.004.498 1.199.26 2.713-.237 1.514-.847 2.562-1.143 2.45-.297-.113-.199-1.33.118-2.68Z"/>
    <path fill="#7D7A7C" d="m12.74 103.514 4.045-8.642a49.691 49.691 0 0 0 1.31-2.692c.307-.7.5-.968.554-.94a7.26 7.26 0 0 1-.285 1.053l-.958 2.696c-.871 2.345-2.05 5.391-3.318 8.95-3.175 8.356-5.586 12.36-5.909 12.193-.322-.167.57-3.975 4.56-12.618Z" opacity=".5"/>
    <path fill="#F9E6CF" d="M10.269 109.929a11.536 11.536 0 0 1 2.332-4.195 10.998 10.998 0 0 1-1.363 4.614 11.104 11.104 0 0 1-2.333 4.195 11.6 11.6 0 0 1 1.364-4.614Z"/>
    <path fill="#7D7A7C" d="M20.517 105.165c.584-3.054 1.083-5.892 1.463-7.973a22.82 22.82 0 0 1 .75-3.322c.06 1.137.044 2.277-.047 3.413-.163 2.084-.338 4.954-.68 8.119-.726 7.576-2.321 11.348-2.726 11.207-.404-.141-.168-3.525 1.24-11.444Z" opacity=".5"/>
    <path fill="#F9E6CF" d="M19.841 111.008c.41-2.189.84-3.972 1.138-3.94a7.83 7.83 0 0 1-.057 4.117c-.382 2.19-.92 3.943-1.244 3.885a9.216 9.216 0 0 1 .163-4.062Z"/>
    <path fill="#7D7A7C" d="M23.44 117.262c.394-5.116.783-9.798 1.047-13.235.159-1.705.286-3.112.354-4.087.01-.502.081-1.001.21-1.487.02.506.013 1.012-.021 1.517l-.056 4.064c-.047 3.44-.11 8.126-.182 13.3-.36 12.459-2.073 18.938-2.504 18.743-.43-.196.104-5.608 1.151-18.815Z" opacity=".5"/>
    <path fill="#F9E6CF" d="M22.956 126.847a23.019 23.019 0 0 1 1.011-6.598c.385 2.204.4 4.457.044 6.666a19.625 19.625 0 0 1-1.2 6.595 24.387 24.387 0 0 1 .145-6.663Z"/>
    <path fill="#7D7A7C" d="M26.424 102.97c.448-3.002.784-5.788.92-7.845.05-1.115.165-2.227.344-3.328.08.293.13.593.15.896-.008.569.116 1.41.156 2.44a60.982 60.982 0 0 1-.11 8.127 23.846 23.846 0 0 1-2.065 8.344c-.378.642-.793 1.26-1.244 1.853-.33.375-.603.479-.683.424-.08-.055 1.207-3.099 2.532-10.911Z" opacity=".5"/>
    <path fill="#F9E6CF" d="M25.561 108.648a10.357 10.357 0 0 1 1.297-3.749c.325.005.246 1.846-.298 4.033-.28.927-.637 1.828-1.066 2.695-.416.645-.745.993-.852.91-.108-.083.006-.515.151-1.19.145-.676.402-1.675.768-2.699Z"/>
    <path fill="#7D7A7C" d="M35.712 89.251c-.454-2.417-.966-4.619-1.35-6.223l-.516-1.876c-.03-.243-.026-.49.01-.732.515.748.94 1.554 1.267 2.402a55.864 55.864 0 0 1 2.138 6.099c1.626 5.82 1.366 9.04 1.013 9.09-.353.05-1.483-2.513-2.562-8.76Z" opacity=".5"/>
    <path fill="#F9E6CF" d="M36.843 93.71c-.355-1.738-.39-3.175-.118-3.253.272-.077.795 1.312 1.15 3.05.355 1.74.308 3.23-.044 3.251-.353.023-.633-1.309-.988-3.048Z"/>
    <path fill="#7D7A7C" d="M30.616 119.284c-.136-3.904-.276-7.536-.375-10.193.018-1.3.032-2.384-.093-3.117a6.368 6.368 0 0 1 .016-1.165c.144.355.23.732.255 1.114-.01.759.273 1.819.472 3.123.37 2.714.836 6.216 1.189 10.149.952 9.578-.2 14.629-.714 14.54-.513-.088-.401-4.34-.75-14.451Z" opacity=".5"/>
    <path fill="#F9E6CF" d="M31.112 126.579c-.204-1.713-.08-3.45.368-5.116a11.71 11.71 0 0 1 .689 5.103 10.41 10.41 0 0 1-.53 5.114 16.019 16.019 0 0 1-.527-5.101Z"/>
    <path fill="#7D7A7C" d="M14.376 21.522a232.316 232.316 0 0 1 3.107 12.452c.357 1.603.637 2.934.814 3.858.134.469.21.952.224 1.44a9.67 9.67 0 0 1-.495-1.444L16.858 34.1c-.985-3.183-2.307-7.51-3.868-12.218-1.9-5.662-3.385-9.936-4.484-12.714a35.227 35.227 0 0 1-1.676-4.25c.138-.16 1.29.776 2.662 3.45a64.576 64.576 0 0 1 4.884 13.154Z" opacity=".5"/>
    <path fill="#F9E6CF" d="M11.22 12.673a17.507 17.507 0 0 1 1.62 6.254 23.793 23.793 0 0 1-2.627-5.889 34.577 34.577 0 0 1-2.084-6.07 14.144 14.144 0 0 1 3.09 5.705Z"/>
    <path fill="#7D7A7C" d="M8.61 48.998a29.795 29.795 0 0 1 3.681 4.141 9.293 9.293 0 0 1 1.246 1.968c-.135-.002-2.538-2.527-5.836-4.984a16.57 16.57 0 0 0-4.704-2.584c-1.106-.313-1.758-.214-1.836-.431-.078-.218.39-.808 1.853-.842a8.611 8.611 0 0 1 5.596 2.732Z" opacity=".5"/>
    <path fill="#F9E6CF" d="M5.064 46.944c1.48.643 2.306 1.657 2.14 1.872-.165.214-1.268-.343-2.56-.902-1.292-.56-2.373-.737-2.423-1.036-.05-.299 1.363-.632 2.843.066Z"/>
    <path fill="#7D7A7C" d="M-10.04 46.331c3.576 1.81 6.774 3.67 9.03 5.082a66.899 66.899 0 0 1 2.685 1.716c.332.202.646.433.938.69a5.9 5.9 0 0 1-1.077-.448l-2.852-1.393c-2.394-1.171-5.704-2.788-9.339-4.328a101.826 101.826 0 0 0-10.104-3.796 16.733 16.733 0 0 1-3.534-1.023c.002-.163 1.118-.581 3.551-.25a35.93 35.93 0 0 1 10.701 3.75ZM50.172 71.648c-4.047-1.085-7.643-1.54-7.614-1.702a8.12 8.12 0 0 1 2.33-.131 36.586 36.586 0 0 1 5.575.401c2.05.223 4.002.989 5.657 2.218 1.097.964 1.221 1.805 1.03 1.884a40.442 40.442 0 0 0-6.978-2.67Z" opacity=".5"/>
    <path fill="#F9E6CF" d="M53.925 72.567c-1.347-.56-2.505-1.064-2.42-1.36.086-.298 1.358-.226 2.704.388 1.346.615 2.388 1.686 2.141 1.9-.247.213-1.078-.395-2.425-.928Z"/>
    <path fill="#7D7A7C" d="M35.587 40.995a175.545 175.545 0 0 1-2.835 9.227l-1.011 2.696c-.114.346-.264.68-.447.996.02-.366.08-.728.177-1.081.145-.703.375-1.675.635-2.89.575-2.431 1.352-5.753 2.106-9.4.9-4.405 1.54-7.702 1.923-9.918.1-1.147.325-2.28.67-3.378.216.003.663.985.659 3.288a42.115 42.115 0 0 1-1.877 10.46Z" opacity=".5"/>
    <path fill="#F9E6CF" d="M36.9 34.104c-.11 1.639-.604 3.229-1.444 4.64a12.764 12.764 0 0 1 .418-4.817 16.558 16.558 0 0 1 1.039-4.7 8.808 8.808 0 0 1-.013 4.877Z"/>
    <path fill="#7D7A7C" d="M58.791 39.524c-3.235 2.882-6.197 5.55-8.363 7.526-1.07.934-1.974 1.707-2.577 2.268a7.152 7.152 0 0 1-1.013.772 5.2 5.2 0 0 1 .8-1.019l2.336-2.515c2.033-2.113 4.78-5.001 7.802-8.021 7.334-7.54 11.659-10.868 11.927-10.675.268.193-2.656 4.082-10.912 11.664Z" opacity=".5"/>
    <path fill="#F9E6CF" d="M64.477 33.722a15.847 15.847 0 0 1-4.463 3.543c-.214-.22 1.437-2.121 3.66-4.285a15.412 15.412 0 0 1 4.572-3.541 15.524 15.524 0 0 1-3.769 4.283Z"/>
    <path fill="#7D7A7C" d="M63.783 48.777 53.04 54.05l-3.3 1.662c-.396.23-.816.415-1.253.552.35-.297.725-.564 1.121-.798l3.114-1.962c2.731-1.642 6.31-3.842 10.403-6.116a74.188 74.188 0 0 1 11.585-5.45c2.722-.966 4.294-1.026 4.318-.835.025.19-1.12.689-3.574 1.874l-11.67 5.801Z" opacity=".5"/>
    <path fill="#F9E6CF" d="M71.45 44.736a20.035 20.035 0 0 1-5.637 2.2 15.76 15.76 0 0 1 5.189-3.154 14.188 14.188 0 0 1 5.767-1.872 22.982 22.982 0 0 1-5.32 2.827Z"/>
    <path fill="#7D7A7C" d="M6.867 43.826a73.6 73.6 0 0 1 5.11 6.491 19.694 19.694 0 0 1 1.776 2.897 22.44 22.44 0 0 1-2.403-2.499c-1.415-1.537-3.39-3.677-5.635-5.875a71.566 71.566 0 0 0-6.341-5.668c-1.474-1.158-2.362-1.55-2.305-1.766.057-.216 1.033-.311 2.7.579a24.373 24.373 0 0 1 7.098 5.841Z" opacity=".5"/>
    <path fill="#F9E6CF" d="M2.398 39.863c1.767 1.46 2.884 2.966 2.665 3.152-.22.187-1.64-.916-3.353-2.349-1.714-1.432-3.19-2.455-3.077-2.751.112-.297 1.998.434 3.765 1.948Z"/>
    <path fill="#7D7A7C" d="M13.952 38.666a62.332 62.332 0 0 1 3.584 7.284 19.883 19.883 0 0 1 1.228 3.24 23.752 23.752 0 0 1-1.801-2.95 176.597 176.597 0 0 0-4.347-6.915 37.414 37.414 0 0 0-5.328-6.467c-1.392-1.211-2.309-1.521-2.279-1.738.03-.216 1.062-.392 2.863.608a18.744 18.744 0 0 1 6.08 6.938Z" opacity=".5"/>
    <path fill="#F9E6CF" d="M10.062 33.953c1.574 1.728 2.418 3.42 2.172 3.58-.246.158-1.446-1.213-2.942-2.75-1.495-1.538-2.887-2.75-2.804-2.911.084-.161 2.134.409 3.574 2.081Z"/>
    <path fill="#7D7A7C" d="M-10.365 34.378c4.233 3.39 8.033 6.748 10.49 9.22a101.825 101.825 0 0 1 3.048 2.995c.4.351.757.747 1.067 1.18a10.83 10.83 0 0 1-1.233-.965l-3.32-2.755c-2.678-2.258-6.59-5.374-10.906-8.576-3.89-2.919-7.96-5.59-12.187-7.997-2.877-1.556-4.497-1.904-4.467-2.147.03-.244 1.63-.33 4.7.877a52.887 52.887 0 0 1 12.808 8.168ZM-.33 31.454c2.931 3.454 5.324 6.738 7.214 9.148l2.1 2.9c.275.344.507.72.688 1.121a8.903 8.903 0 0 1-.935-.934l-2.346-2.742c-2-2.222-4.72-5.32-7.818-8.587-3.711-3.871-6.597-6.755-8.605-8.463a32.254 32.254 0 0 1-3.104-2.752c.003-.216 1.381.02 3.662 1.568a49.512 49.512 0 0 1 9.143 8.74ZM23.707 20.511c.716 5.05 1.167 9.69 1.419 13.08.14 1.681.229 3.064.297 4.04.034.497.028.995-.02 1.49a12.246 12.246 0 0 1-.306-1.467c-.15-.95-.374-2.308-.65-3.965-.495-3.366-1.245-7.955-2.125-12.926-1.136-6.03-2.13-10.541-2.928-13.587-.798-3.045-1.512-4.356-1.347-4.489.164-.133 1.287.912 2.44 3.8a62.038 62.038 0 0 1 3.22 14.024Z" opacity=".5"/>
    <path fill="#F9E6CF" d="M21.64 11.19c.689 2.117.98 4.344.858 6.568a24.63 24.63 0 0 1-1.863-6.311 42.546 42.546 0 0 1-1.457-6.387 13.549 13.549 0 0 1 2.462 6.13Z"/>
    <path fill="#7D7A7C" d="M8.97 28.6a98.17 98.17 0 0 1 3.803 9.156c.444 1.198.783 2.151 1.019 2.724.147.348.251.714.31 1.088-.244-.33-.431-.7-.554-1.092l-1.371-2.728c-1.134-2.237-2.634-5.455-4.513-8.623-1.604-3.001-3.373-5.91-5.298-8.716C1.092 18.549.208 17.832.291 17.67c.084-.161 1.273.017 2.9 1.774a33.187 33.187 0 0 1 5.78 9.155Z" opacity=".5"/>
    <path fill="#F9E6CF" d="M5.262 22.508a10.216 10.216 0 0 1 2.051 4.498c-.273.16-1.466-1.673-2.952-3.915a22.702 22.702 0 0 1-2.652-4.127c.275-.322 2.068 1.22 3.553 3.544Z"/>
    <path fill="#7D7A7C" d="M9.286 23.376c2.278 5.72 4.074 11.056 5.212 14.946l1.426 4.653c.18.57.326 1.151.437 1.74a10.845 10.845 0 0 1-.709-1.636l-1.699-4.52c-1.491-3.814-3.56-9.018-6.03-14.606A117.057 117.057 0 0 0 .3 9.191C-1.69 6.075-3.163 4.89-3.053 4.729c.11-.161 1.835.485 4.178 3.416a62.67 62.67 0 0 1 8.161 15.23Z" opacity=".5"/>
    <path fill="#F9E6CF" d="M4.143 13.253a23.033 23.033 0 0 1 3.068 7.358 44.512 44.512 0 0 1-3.995-6.856C1.156 9.934-.92 7.115-.754 6.927a16.931 16.931 0 0 1 4.897 6.326Z"/>
    <path fill="#7D7A7C" d="M3.83 30.183c2.643 4.778 4.993 9.253 6.627 12.527.763 1.636 1.422 3 1.87 3.927.237.478.447.97.63 1.472a9.068 9.068 0 0 1-.876-1.34l-2.226-3.634c-1.852-3.14-4.393-7.484-7.282-12.102-3.497-5.71-6.231-9.758-8.171-12.494-1.94-2.736-3.142-3.945-3.031-4.133.11-.188 1.564.51 3.805 3.005A74.184 74.184 0 0 1 3.83 30.184Z" opacity=".5"/>
    <path fill="#F9E6CF" d="M-1.848 21.598a21.296 21.296 0 0 1 3.435 6.251 29.61 29.61 0 0 1-4.283-5.64 46.295 46.295 0 0 1-3.9-5.906 16.902 16.902 0 0 1 4.748 5.295Z"/>
    <path fill="#7D7A7C" d="M-2.088 72.776c2.404-.461 4.832-.79 7.272-.985 1.02-.07 2.043-.056 3.06.042-.945.243-1.907.412-2.878.503-1.82.408-4.347.97-7.012 1.746-3.235.931-5.603 1.766-7.155 2.368-1.552.602-2.37.97-2.476.86-.107-.11.31-.863 1.732-1.9a22.361 22.361 0 0 1 7.457-2.634ZM32.61 42.878a226.183 226.183 0 0 1-2.086 7.91 24.387 24.387 0 0 1-1.074 3.29c.048-1.145.19-2.285.425-3.408.327-2.108.8-4.974 1.303-8.11a53.06 53.06 0 0 1 2.376-11.347c.46-.021 1.006 3.698-.945 11.665Z" opacity=".5"/>
    <path fill="#F9E6CF" d="M33.475 36.983c-.356 2.27-.948 4.024-1.246 3.966a9.215 9.215 0 0 1 .057-4.118 10.57 10.57 0 0 1 1.056-3.995c.433.032.516 1.903.133 4.147Z"/>
    <path fill="#7D7A7C" d="M29.248 29.203a349.396 349.396 0 0 1-1.264 13.205c-.213 1.704-.367 3.084-.488 4.03a5.633 5.633 0 0 1-.264 1.487 8.131 8.131 0 0 1 .02-1.49l.056-4.063c.047-3.44.273-8.125.452-13.243.247-6.175.392-10.833.516-14.001a21 21 0 0 1 .363-4.737c.489-.101 1.71 5.605.61 18.812Z" opacity=".5"/>
    <path fill="#F9E6CF" d="M29.434 19.614c.129 2.237-.13 4.48-.768 6.628a24.392 24.392 0 0 1-.288-6.642c-.097-2.222.07-4.448.497-6.631a17.48 17.48 0 0 1 .559 6.645Z"/>
    <path fill="#7D7A7C" d="M33.06 27.82c-.802 5.082-1.624 9.73-2.292 13.081-.267 1.677-.638 3.053-.65 4.002-.097.492-.22.98-.373 1.458a5.691 5.691 0 0 1 .02-1.49c.014-.976.25-2.354.435-4.059.399-3.408.924-8.115 1.508-13.174a2228.37 2228.37 0 0 1 1.572-13.96c.054-1.599.294-3.187.715-4.73.46-.049 1.248 5.76-.936 18.871Z" opacity=".5"/>
    <path fill="#F9E6CF" d="M34.03 18.241a20.14 20.14 0 0 1-1.255 6.567 22.604 22.604 0 0 1 .227-6.662c.068-2.23.398-4.445.984-6.598a18.05 18.05 0 0 1 .044 6.693Z"/>
    <path fill="#7D7A7C" d="M40.306 42.55c-1.368 2.934-2.785 5.597-3.705 7.508a24.599 24.599 0 0 1-1.748 3.038 19.921 19.921 0 0 1 1.156-3.317c.759-2.049 1.799-4.798 2.95-7.79a94.858 94.858 0 0 1 4.348-10.94c.541.007.488 3.935-3.001 11.5Z" opacity=".5"/>
    <path fill="#F9E6CF" d="M42.307 36.833c-.789 2.184-1.705 3.85-1.974 3.739a9.513 9.513 0 0 1 .976-4.078c.788-2.157 1.435-3.882 1.732-3.824a7.589 7.589 0 0 1-.734 4.163Z"/>
    <path fill="#7D7A7C" d="M33.936 96.353c-.53-2.88-1.144-5.435-1.659-7.447a24.38 24.38 0 0 1-.769-3.153s.186.273.45.792c.263.518.552 1.227.945 2.153a61.617 61.617 0 0 1 2.446 7.35c1.906 7.124.388 11.167-.15 10.97-.54-.197-.16-.246-.181-.652a18.226 18.226 0 0 1-.163-1.926 66.564 66.564 0 0 0-.919-8.087Z" opacity=".5"/>
    <path fill="#F9E6CF" d="M34.973 101.732a8.673 8.673 0 0 1 .052-3.847c.298.004.845 1.61 1.032 3.753.188 2.143-.243 3.926-.54 3.894a11.35 11.35 0 0 1-.544-3.8Z"/>
    <path fill="#7D7A7C" d="M35.428 112.034 32.38 99.177c-.384-1.658-.69-3.017-.894-3.968-.127-.482-.22-.972-.278-1.467.229.444.413.909.55 1.389.285.925.727 2.259 1.274 3.865a365.63 365.63 0 0 1 3.781 12.678c3.466 11.941 3.7 18.583 3.185 18.576a15.992 15.992 0 0 1-1.268-4.271c-.717-3.045-1.793-7.53-3.303-13.945Z" opacity=".5"/>
    <path fill="#F9E6CF" d="M37.847 121.279a23.988 23.988 0 0 1-1.02-6.571 19.548 19.548 0 0 1 2.052 6.341c.672 2.139.936 4.386.776 6.622a27.448 27.448 0 0 1-1.808-6.392Z"/>
    <path fill="#7D7A7C" d="M40.478 103.162c-1.516-4.004-3.037-7.628-4.138-10.298l-1.282-3.324a8.135 8.135 0 0 1-.417-1.17s.293.356.69 1.066l1.61 3.002a165.582 165.582 0 0 1 4.874 10.011 55.12 55.12 0 0 1 3.937 11.189c.558 2.717.35 4.069.16 4.067-.189-.003-1.375-4.381-5.434-14.543Z" opacity=".5"/>
    <path fill="#F9E6CF" d="M43.52 110.411a17.48 17.48 0 0 1-1.441-5.439 13.387 13.387 0 0 1 2.45 5.046 11.627 11.627 0 0 1 1.035 5.433 22.541 22.541 0 0 1-2.043-5.04Z"/>
    <path fill="#7D7A7C" d="M50.07 94.975c-1.777-2.733-3.615-5.007-4.946-6.733a30.852 30.852 0 0 1-2.129-2.738s.296.166.75.579a59.363 59.363 0 0 1 1.872 1.787 66.553 66.553 0 0 1 5.628 6.308 22.87 22.87 0 0 1 4.333 7.971c.487 2.039.2 3.146-.043 3.143a66.807 66.807 0 0 0-5.465-10.317Z" opacity=".5"/>
    <path fill="#F9E6CF" d="M53.387 99.925c-1.028-2.02-1.926-3.684-1.68-3.844.245-.159 1.526 1.268 2.662 3.37 1.136 2.101 1.325 4.109 1.026 4.159-.298.05-.952-1.666-2.008-3.685Z"/>
    <path fill="#7D7A7C" d="M47.24 82.067c-1.766-1.569-3.508-2.92-4.768-3.886a12.892 12.892 0 0 1-2.035-1.653c.836.273 1.64.638 2.395 1.089a42.257 42.257 0 0 1 5.371 3.325 14.627 14.627 0 0 1 4.59 4.967c.685 1.445.565 2.338.375 2.362-.19.025-1.352-2.159-5.928-6.204Z" opacity=".5"/>
    <path fill="#F9E6CF" d="M50.532 84.93c-1.093-1.262-2-2.304-1.807-2.545.193-.241 1.429.507 2.684 1.852 1.254 1.346 1.642 2.733 1.369 2.892-.273.158-1.125-.964-2.246-2.199Z"/>
    <path fill="#7D7A7C" d="M59.585 68.58c-3.163-.423-6.113-.599-8.277-.764a26.551 26.551 0 0 1-3.49-.291 19.199 19.199 0 0 1 3.499-.359c2.168-.106 5.121-.2 8.397-.047 3.04.02 6.045.66 8.83 1.881 1.91.92 2.409 2.12 2.245 2.199-.163.079-.806-.445-2.695-.958a50.44 50.44 0 0 0-8.509-1.661Z" opacity=".5"/>
    <path fill="#F9E6CF" d="M65.426 69.256c-2.187-.518-4.023-.922-3.992-1.22a7.228 7.228 0 0 1 4.25.194c2.322.492 3.958 1.707 3.792 1.948a23.748 23.748 0 0 1-4.05-.922Z"/>
    <path fill="#7D7A7C" d="M42.608 48.433c-1.572 2.12-3.034 4.05-4.135 5.362-.55.785-1.167 1.52-1.845 2.197.333-.944.773-1.847 1.31-2.691.86-1.533 2.08-3.63 3.466-5.887 3.296-5.374 5.524-7.836 5.981-7.613.457.223-.72 3.16-4.776 8.632Z" opacity=".5"/>
    <path fill="#F9E6CF" d="M45.185 44.242c-1.05 1.557-2.095 2.68-2.337 2.542-.242-.139.4-1.566 1.45-3.123 1.051-1.557 2.096-2.681 2.338-2.542.242.138-.4 1.566-1.451 3.123Z"/>
    <path fill="#7D7A7C" d="M64.42 51.74 53.742 56.2l-3.296 1.363a7.175 7.175 0 0 1-1.225.47s.383-.292 1.093-.716l3.138-1.718c2.728-1.399 6.302-3.3 10.392-5.277A65.277 65.277 0 0 1 75.44 45.93c2.718-.667 4.232-.51 4.23-.294-.004.217-1.145.499-3.622 1.44-2.478.942-6.264 2.489-11.63 4.664Z" opacity=".5"/>
    <path fill="#F9E6CF" d="M72.076 48.403a19.357 19.357 0 0 1-5.44 1.66 14.974 14.974 0 0 1 5.21-2.639 12.562 12.562 0 0 1 5.732-1.276 24.856 24.856 0 0 1-5.502 2.255Z"/>
    <path fill="#7D7A7C" d="M58.759 101.272c-3.224-3.865-6.32-7.294-8.56-9.79l-2.668-2.99a9.992 9.992 0 0 1-.932-1.124c.413.275.799.589 1.152.937l2.914 2.75c2.46 2.336 5.775 5.497 9.19 9.283a61.778 61.778 0 0 1 8.49 10.954c1.588 2.731 1.835 4.415 1.645 4.466-.19.052-.824-1.149-2.66-3.531-1.836-2.383-4.386-6.048-8.571-10.955Z" opacity=".5"/>
    <path fill="#F9E6CF" d="M64.864 108.373a25.985 25.985 0 0 1-3.663-5.469 17.414 17.414 0 0 1 4.512 4.776 14.582 14.582 0 0 1 3.199 5.733 39.408 39.408 0 0 1-4.048-5.04Z"/>
    <path fill="#7D7A7C" d="M49.787 107.706c-1.922-4.01-3.877-7.586-5.277-10.179l-1.746-3.085a6.12 6.12 0 0 1-.607-1.174c.316.304.593.644.826 1.014.505.684 1.25 1.643 2.073 2.9a114.146 114.146 0 0 1 6.094 9.865 42.456 42.456 0 0 1 4.501 11.522c.423 2.716.321 4.232-.058 4.226a13.735 13.735 0 0 1-1.195-3.674 103.614 103.614 0 0 0-4.61-11.415Z" opacity=".5"/>
    <path fill="#F9E6CF" d="M53.314 115.178a22.77 22.77 0 0 1-1.767-5.443 13.139 13.139 0 0 1 2.638 5.129c.448 1.308.81 2.643 1.083 3.998l-.024 1.761c0 .027-.371-.601-.683-1.581-.311-.98-.699-2.367-1.247-3.864Z"/>
    <path fill="#7D7A7C" d="M49.03 62.123c-3.663.491-6.735 1.316-6.787 1.153a9.215 9.215 0 0 1 1.828-.95 34.41 34.41 0 0 1 4.789-1.642 9.855 9.855 0 0 1 5.419-.17c1.266.478 1.608 1.215 1.471 1.348-.137.134-.65-.009-1.625-.022a29.282 29.282 0 0 0-5.095.283Z" opacity=".5"/>
    <path fill="#F9E6CF" d="M52.37 61.545c-1.274-.017-2.384-.033-2.434-.331-.05-.3 1.012-.718 2.42-.726 1.41-.008 2.701.606 2.4.873-.302.267-1.113.12-2.387.184Z"/>
    <path fill="#7D7A7C" d="m52.629 38.6-6.719 8.036-2.09 2.383c-.254.314-.54.6-.852.855a4.87 4.87 0 0 1 .635-.858l1.824-2.685 6.076-8.587c5.77-8.049 9.34-11.63 9.662-11.383.322.249-1.87 4.12-8.536 12.239Z" opacity=".5"/>
    <path fill="#F9E6CF" d="M57.1 32.456c-1.765 2.306-3.386 4.018-3.627 3.852a14.306 14.306 0 0 1 2.77-4.514c1.792-2.305 3.413-4.017 3.655-3.851a13.547 13.547 0 0 1-2.798 4.513Z"/>
    <path fill="#7D7A7C" d="M45.128 32.51c-2.337 4.52-4.506 8.662-6.064 11.702-.806 1.48-1.472 2.69-1.917 3.55-.232.446-.491.877-.776 1.29.137-.481.316-.95.533-1.401.365-.89.897-2.183 1.568-3.718 1.396-3.096 3.27-7.406 5.365-12.065 5.056-11.229 8.354-16.684 8.758-16.516.404.168-1.483 5.453-7.467 17.157Z" opacity=".5"/>
    <path fill="#F9E6CF" d="M49.065 23.866a20.699 20.699 0 0 1-3.328 5.698 20.728 20.728 0 0 1 2.387-6.172 20.863 20.863 0 0 1 3.328-5.725 20.486 20.486 0 0 1-2.387 6.199Z"/>
    <path fill="#7D7A7C" d="M56.3 77.043a55.156 55.156 0 0 0-6.461-2.798 19.96 19.96 0 0 1-2.694-1.067c.27-.026.543-.022.812.011.727.082 1.448.2 2.162.355a39.91 39.91 0 0 1 6.878 2.072 14.896 14.896 0 0 1 6.276 4.502c.347.58.655 1.182.924 1.801l-.01.759a32.499 32.499 0 0 0-7.886-5.635Z" opacity=".5"/>
    <path fill="#F9E6CF" d="M60.656 79.405c-.676-.452-1.32-.95-1.93-1.49-.536-.386-.803-.688-.747-.822.056-.135.488.006 1.108.177.778.374 1.524.81 2.23 1.304a9.883 9.883 0 0 1 1.735 1.92c.316.601.446 1.01.337 1.09-.11.079-.458-.17-.886-.61-.427-.439-1.179-.91-1.847-1.569Z"/>
    <path fill="#7D7A7C" d="M69.185 75.62c-4.59-1.092-8.858-1.882-11.938-2.439l-3.701-.674a9.255 9.255 0 0 1-1.35-.316 8.98 8.98 0 0 1 1.381.019l3.733.322c3.165.314 7.492.78 12.165 1.656a44.291 44.291 0 0 1 12.514 3.883c2.69 1.392 3.538 2.758 3.4 2.946-.138.188-1.128-.693-3.688-1.676a87.64 87.64 0 0 0-12.516-3.72Z" opacity=".5"/>
    <path fill="#F9E6CF" d="M77.689 77.66a24.124 24.124 0 0 1-5.712-2.164 15.134 15.134 0 0 1 6.05 1.14 11.644 11.644 0 0 1 5.377 2.945 55.677 55.677 0 0 1-5.715-1.92Z"/>
    <path fill="#7D7A7C" d="M43.307 29.016c-1.967 5.23-3.847 10.027-5.276 13.475a336.402 336.402 0 0 0-1.708 4.095 6.363 6.363 0 0 1-.724 1.48c.122-.53.274-1.052.454-1.565.312-1.025.792-2.454 1.358-4.235 1.187-3.56 2.824-8.442 4.522-13.73L46.79 14a22.606 22.606 0 0 1 1.881-4.85c.46.06-.222 6.336-5.364 19.867Z" opacity=".5"/>
    <path fill="#F9E6CF" d="M46.478 19.007a23.654 23.654 0 0 1-2.8 6.736 28.456 28.456 0 0 1 1.802-7.047 30.943 30.943 0 0 1 2.558-6.793 20.949 20.949 0 0 1-1.56 7.104Z"/>
    <path fill="#7D7A7C" d="M57.31 86.35c-2.684-1.69-4.967-3.13-6.74-4.157a28.786 28.786 0 0 1-2.874-1.746c.297.046.588.132.863.256a28.66 28.66 0 0 1 2.29.898 65.48 65.48 0 0 1 7.237 3.54 25.758 25.758 0 0 1 6.752 5.322c1.197 1.615 1.536 2.54 1.317 2.727-.22.187-2.35-2.39-8.844-6.84Z" opacity=".5"/>
    <path fill="#F9E6CF" d="M62.008 89.503c-1.715-1.378-3.053-2.562-2.888-2.75.165-.186 1.807.54 3.549 1.946a17.77 17.77 0 0 1 2.003 2.06c.424.656.608 1.092.498 1.171-.11.08-.512-.17-1.02-.637-.509-.467-1.285-1.101-2.143-1.79Z"/>
    <path fill="#7D7A7C" d="M75.506 63c-3.277-.045-6.315.32-8.538.506-1.196.155-2.4.238-3.606.249.29-.153.602-.258.925-.313l2.581-.588a76.99 76.99 0 0 1 8.576-1.291c3.09-.415 6.23-.243 9.256.506 2.077.651 2.877 1.556 2.685 1.69-.191.132-.974-.014-2.838-.392-3-.361-6.022-.484-9.041-.367Z" opacity=".5"/>
    <path fill="#F9E6CF" d="M81.657 62.786a11.613 11.613 0 0 1-4.271-.6 7.824 7.824 0 0 1 4.34-.456c2.435.169 4.32 1.007 4.207 1.304-1.43.083-2.865 0-4.276-.248Z"/>
    <path fill="#7D7A7C" d="m71.774 56.663-8.806 2.21-2.717.667c-.652.153-1.006.23-1.032.175.303-.18.622-.33.954-.448l2.587-1.02a174.31 174.31 0 0 1 8.6-2.972 48.378 48.378 0 0 1 9.481-2.173c2.197-.214 3.358.046 3.328.29a91.598 91.598 0 0 1-12.395 3.27Z" opacity=".5"/>
    <path fill="#F9E6CF" d="M78.054 54.906c-1.46.52-3.014.72-4.558.588a9.72 9.72 0 0 1 4.301-1.62 8.61 8.61 0 0 1 4.609-.29 13.538 13.538 0 0 1-4.352 1.322Z"/>
    <path fill="#7D7A7C" d="M63.31 39.83c-3.2 2.232-6.1 4.36-8.206 5.875l-2.517 1.835a4.28 4.28 0 0 1-.983.61c.236-.304.503-.582.797-.829l2.304-2.109a158.673 158.673 0 0 1 7.754-6.56 49.43 49.43 0 0 1 9.046-5.944c2.236-1.054 3.618-1.089 3.615-.9-.003.19-.876.639-2.735 1.914s-4.92 3.238-9.075 6.108Z" opacity=".5"/>
    <path fill="#F9E6CF" d="M69.165 35.493a13.945 13.945 0 0 1-4.475 2.432c-.159-.246 1.542-1.795 3.892-3.334a9.748 9.748 0 0 1 4.687-2.076c.131.273-1.78 1.438-4.104 2.978Z"/>
    <path fill="#7D7A7C" d="M70.605 80.68c-3.231-1.345-6.305-2.336-8.57-3.044l-2.698-.823-.97-.365 1.03.014c.65.009 1.621.239 2.702.443a74.98 74.98 0 0 1 8.905 2.317 22.42 22.42 0 0 1 8.656 4.751c1.63 1.648 1.91 2.898 1.693 2.977-.218.078-.776-.688-2.358-1.875a38.532 38.532 0 0 0-8.39-4.396Z" opacity=".5"/>
    <path fill="#F9E6CF" d="M76.583 83.227c-2.149-1.276-3.978-2.195-3.839-2.491a8.123 8.123 0 0 1 4.366 1.577c2.258 1.304 3.587 3.083 3.314 3.27a34.121 34.121 0 0 1-3.84-2.356Z"/>
    <path fill="#7D7A7C" d="M57.558 95.999c-3.018-3.076-5.961-5.744-8.02-7.67l-2.677-2.312a5.742 5.742 0 0 1-.909-.88 5.8 5.8 0 0 1 1.074.666c.671.47 1.637 1.133 2.681 2.014 2.333 1.74 5.36 4.192 8.732 7.137a43.92 43.92 0 0 1 8.001 9.051c1.322 2.375 1.71 3.735 1.492 3.841-.219.105-.91-.88-2.398-2.932-1.489-2.053-4.049-4.96-7.976-8.915Z" opacity=".5"/>
    <path fill="#F9E6CF" d="M63.249 101.685c-2-2.33-3.625-4.249-3.406-4.463.22-.213 2.175 1.412 4.2 3.797a27.58 27.58 0 0 1 2.339 3.283c.475.901.656 1.526.547 1.606-.11.08-.536-.414-1.149-1.181-.612-.767-1.545-1.863-2.531-3.042Z"/>
    <path fill="#7D7A7C" d="M50.076 102.453c-1.852-3.25-3.653-6.2-4.95-8.358l-1.51-2.568a4.58 4.58 0 0 1-.5-.982c.277.24.519.516.72.823.452.575 1.091 1.37 1.836 2.355 1.516 2.026 3.564 4.817 5.633 7.961 5.314 7.551 6.166 12.548 5.732 12.624-.435.075-2.038-3.496-6.961-11.855Z" opacity=".5"/>
    <path fill="#F9E6CF" d="M53.786 108.383a13.002 13.002 0 0 1-1.97-4.47c.246-.159 1.576 1.593 2.898 3.968a9.757 9.757 0 0 1 1.67 4.629c-.3.105-1.302-1.806-2.598-4.127Z"/>
    <path fill="#7D7A7C" d="M67.44 88.412c-2.688-1.581-5.19-2.78-7.017-3.862a21.143 21.143 0 0 1-2.957-1.639 20.28 20.28 0 0 1 3.236 1.047 74.803 74.803 0 0 1 7.432 3.163 23.67 23.67 0 0 1 7.11 4.947c1.36 1.482 1.533 2.73 1.37 2.728-.162-.002-.723-.551-2.117-1.654a66.485 66.485 0 0 0-7.058-4.73Z" opacity=".5"/>
    <path fill="#F9E6CF" d="M72.492 91.245c-1.797-1.271-3.245-2.348-3.077-2.752.168-.404 1.836.432 3.687 1.758 1.85 1.326 2.94 2.885 2.666 3.07-.273.187-1.505-.833-3.276-2.076Z"/>
    <path fill="#7D7A7C" d="m60.97 44.54-8.2 5.441-2.514 1.673c-.295.222-.616.409-.955.556a5.42 5.42 0 0 1 .796-.775l2.275-1.974c1.918-1.627 4.629-3.811 7.667-6.127a51.076 51.076 0 0 1 8.906-5.595c2.127-1.027 3.402-1.173 3.453-.982a119.166 119.166 0 0 1-11.427 7.782Z" opacity=".5"/>
    <path fill="#F9E6CF" d="M66.687 40.445c-2.268 1.432-4.18 2.652-4.365 2.27-.184-.382 1.514-1.713 3.808-3.172a9.45 9.45 0 0 1 4.524-1.997 16.254 16.254 0 0 1-3.967 2.899Z"/>
    <path fill="#7D7A7C" d="m12.19 117.893 3.73-11.247 1.158-3.452a4.42 4.42 0 0 1 .504-1.24 9.642 9.642 0 0 1-.235 1.325c-.2.837-.461 2.053-.806 3.538a755.517 755.517 0 0 1-2.866 11.503c-2.856 10.799-5.635 15.936-6.092 15.713-.458-.223.96-4.891 4.608-16.14Z" opacity=".5"/>
    <path fill="#F9E6CF" d="M9.83 126.125a18.97 18.97 0 0 1 2.297-5.523 16.727 16.727 0 0 1-1.299 5.835 16.773 16.773 0 0 1-2.403 5.386 17.32 17.32 0 0 1 1.405-5.698Z"/>
    <path fill="#7D7A7C" d="M41.45 24.222c-1.384 4.154-2.817 7.9-3.829 10.623l-1.29 3.234c-.142.4-.32.788-.53 1.157.05-.394.136-.783.26-1.161L37 34.728c.795-2.699 1.879-6.667 3.046-10.796 1.396-5.048 2.422-8.827 3.163-11.472.226-1.4.618-2.768 1.166-4.075.19.002.47 1.253.137 3.85a69.997 69.997 0 0 1-3.062 11.987Z" opacity=".5"/>
    <path fill="#F9E6CF" d="M43.481 16.311a13.738 13.738 0 0 1-2.024 5.392c.03-1.898.366-3.779.998-5.568.328-1.865.899-3.68 1.698-5.396a12.44 12.44 0 0 1-.672 5.572Z"/>
    <path fill="#7D7A7C" d="M54.548 40.82c-2.114 2.112-4.064 4.063-5.49 5.344-.75.788-1.556 1.52-2.413 2.19a18.311 18.311 0 0 1 1.933-2.684c1.24-1.581 3.002-3.698 4.93-6.002 4.653-5.572 7.639-8.023 7.931-7.64.293.383-1.588 3.284-6.89 8.793Z" opacity=".5"/>
    <path fill="#F9E6CF" d="M58.047 36.533c-1.458 1.579-2.745 2.672-3.014 2.533-.27-.14.78-1.642 2.238-3.248 1.457-1.606 2.745-2.672 2.986-2.506.242.166-.78 1.642-2.21 3.221Z"/>
    <path fill="#7D7A7C" d="m51.261 33.623-6.709 9.337-2.097 2.843c-.254.355-.54.687-.853.99.166-.403.37-.79.611-1.156l1.802-3.037c1.579-2.525 3.712-6.018 6.038-9.78 5.732-9.106 9.339-13.419 9.687-13.17.349.248-1.823 4.608-8.479 13.973Z" opacity=".5"/>
    <path fill="#F9E6CF" d="M55.718 26.612a16.039 16.039 0 0 1-3.745 4.5 16.259 16.259 0 0 1 2.778-5.082 15.497 15.497 0 0 1 3.636-4.502 16.503 16.503 0 0 1-2.67 5.084Z"/>
  </g>
  <defs>
    <clipPath id="a">
      <path fill="#fff" d="M-45.054.333 89.609 2.176 87.73 139.519l-134.663-1.842z"/>
    </clipPath>
  </defs>
</svg>
