<svg xmlns="http://www.w3.org/2000/svg" width="158" height="52" fill="none">
  <path fill="#FF267E" d="M158 0H0v28.249h158V0Z"/>
  <path fill="#005" d="M51.245 13.571h-9.403v-2.74h11.375V7.045H36.389V21.14h5.453v-3.784h9.403V13.57ZM81.132 16.432l-4.99-9.386h-6.259l8.105 14.094h6.21l8.099-14.094h-6.168l-4.997 9.386ZM109.776 13.98a3.316 3.316 0 0 0 2.105-3.03c0-2.311-1.944-3.904-5.768-3.904H93.769V21.14h12.632c4.105 0 5.929-1.628 5.929-3.989-.028-1.318-.821-2.508-2.554-3.17Zm-10.695-3.523h6.084a1.08 1.08 0 0 1 1.285 1.057 1.08 1.08 0 0 1-1.285 1.057h-6.084v-2.114Zm6.527 7.328h-6.527v-2.114h6.527a1.08 1.08 0 0 1 1.284 1.057 1.08 1.08 0 0 1-1.284 1.057ZM120.343 15.622h9.389v-3.058h-9.389V10.83h10.379V7.046h-15.831V21.14h16.076v-3.784h-10.624v-1.734ZM133.22 7.046v3.784h6.12v10.31h5.515V10.83h6.112V7.046H133.22ZM59.552 7.046 51.454 21.14h5.797l1.094-2.08h8.66l1.095 2.08h6.035L66.029 7.046h-6.477Zm.702 8.358 2.393-4.539 2.393 4.539h-4.786ZM7.253 12.57l4.835 8.57h6.21l-4.841-8.57H7.253Z"/>
  <path fill="#005" d="m23.133 12.57-4.835 8.57h6.204l4.834-8.57h-6.203ZM18.298 4.022l-4.842 8.548h9.677l-4.835-8.548Z"/>
  <path fill="#005" stroke="#FF267E" stroke-width=".64" d="M.32 51.18V28.277h68.822V51.18H.32Z"/>
  <path fill="#FF267E" d="M15.49 41.419a3.65 3.65 0 0 1-.413 1.297c-.22.399-.517.733-.865 1.015a3.65 3.65 0 0 1-1.226.669 4.662 4.662 0 0 1-1.55.244c-.697 0-1.316-.116-1.859-.347a3.473 3.473 0 0 1-1.368-.977c-.387-.424-.659-.925-.852-1.529a6.561 6.561 0 0 1-.297-2.017c0-.733.103-1.4.31-1.992a4.162 4.162 0 0 1 .89-1.503c.375-.412.84-.733 1.395-.951a4.853 4.853 0 0 1 1.833-.334c.555 0 1.059.077 1.51.218.452.154.852.373 1.201.643.349.282.633.616.852 1.002.22.398.361.835.439 1.323h-1.756a3.038 3.038 0 0 0-.348-.822 2.236 2.236 0 0 0-.517-.527 2.093 2.093 0 0 0-.645-.295 3.61 3.61 0 0 0-.749-.078c-.349 0-.684.065-.981.206-.31.154-.581.36-.8.643-.22.282-.4.63-.53 1.04-.129.412-.194.887-.194 1.427 0 .552.065 1.053.194 1.465.13.424.31.784.53 1.066.219.296.477.514.774.656.297.14.607.218.943.218.27 0 .542-.026.787-.103.245-.064.478-.167.684-.308.194-.129.375-.322.517-.54.142-.218.258-.488.335-.81h1.756ZM20.602 35.158h1.86l3.498 9.316h-2.001l-.659-1.889h-3.64L19 44.475h-1.885l3.486-9.317Zm-.413 5.924h2.582l-1.291-3.675-1.291 3.675ZM30.581 40.39a5.75 5.75 0 0 1-1.071-.32 3.045 3.045 0 0 1-.891-.54 2.256 2.256 0 0 1-.607-.784c-.155-.296-.232-.656-.232-1.054 0-.475.116-.874.348-1.22.22-.335.517-.617.878-.836a4.199 4.199 0 0 1 1.2-.488 5.736 5.736 0 0 1 1.305-.154c.477 0 .942.064 1.381.205.426.142.813.334 1.15.579.335.257.606.565.812.925.194.36.31.758.336 1.208h-1.782a1.645 1.645 0 0 0-.245-.694 1.715 1.715 0 0 0-.464-.45 2.306 2.306 0 0 0-.607-.244 3.804 3.804 0 0 0-.659-.065c-.22 0-.426.026-.645.065-.22.038-.413.103-.581.192-.168.103-.31.219-.413.36a.868.868 0 0 0-.168.54c0 .321.129.578.374.771.246.193.555.321.93.386l1.226.218c.375.064.762.167 1.15.283.374.115.722.282 1.032.488.297.218.542.488.736.81.194.334.284.745.284 1.22 0 .476-.103.9-.323 1.247-.22.36-.516.655-.865.9a3.95 3.95 0 0 1-1.213.526c-.452.128-.917.18-1.395.18-.58 0-1.097-.077-1.562-.231a3.484 3.484 0 0 1-1.226-.643 2.902 2.902 0 0 1-.826-1.015 3.489 3.489 0 0 1-.375-1.35h1.782c.051.348.142.63.284.849a1.775 1.775 0 0 0 1.2.835c.246.064.517.09.788.09.207 0 .426-.026.645-.064.22-.039.414-.116.607-.219.181-.09.336-.218.452-.398.116-.167.168-.373.168-.617a.951.951 0 0 0-.13-.514 1.203 1.203 0 0 0-.36-.36 2.642 2.642 0 0 0-.543-.244 5.562 5.562 0 0 0-.697-.154l-1.188-.218ZM39.633 35.158h-1.847v9.316h1.846v-9.316ZM48.087 44.474l-3.744-7.106v7.106H42.6v-9.316H45l3.744 7.106v-7.106h1.743v9.316h-2.401ZM54.994 39.812c0 .553.077 1.028.22 1.452.141.424.322.771.567 1.054.245.283.53.501.852.643a2.565 2.565 0 0 0 2.066 0c.323-.142.607-.36.852-.643.245-.283.439-.63.58-1.054.13-.424.207-.9.207-1.452 0-.552-.077-1.028-.206-1.452a3.123 3.123 0 0 0-.581-1.04 2.408 2.408 0 0 0-.852-.643 2.565 2.565 0 0 0-1.033-.218c-.361 0-.71.077-1.033.218-.323.141-.607.36-.852.642-.245.283-.426.63-.568 1.041-.142.424-.22.9-.22 1.452Zm7.255 0c0 .72-.103 1.375-.323 1.966-.22.604-.516 1.105-.916 1.53-.413.436-.891.758-1.446.989-.568.231-1.2.347-1.898.347-.697 0-1.33-.116-1.885-.347a3.918 3.918 0 0 1-1.446-.99c-.413-.424-.71-.925-.93-1.529-.219-.59-.322-1.246-.322-1.966s.103-1.375.323-1.978c.22-.592.516-1.093.93-1.517.4-.424.877-.745 1.445-.976.555-.232 1.188-.347 1.885-.347.697 0 1.33.115 1.898.347a4.286 4.286 0 0 1 1.446.976c.4.424.697.925.916 1.517.22.603.323 1.259.323 1.978Z"/>
</svg>
