<svg xmlns="http://www.w3.org/2000/svg" aria-hidden="true" style="position:absolute;width:0;height:0;overflow:hidden">
  <defs>
    <symbol id="icon-age" viewBox="0 0 45 32">
      <path fill="#e8e8e8" d="M5.438 8.619v22.026h5.806V1.277H6.635C6.015 3.685 4.995 4.553.74 4.553v4.066h4.698zM30.975 7.395C30.975 3.448 28.981 1 23.352 1h-.886c-5.895 0-7.623 2.447-7.623 6.395v2.487c0 3.553 2.393 4.618 3.147 4.934-.753.276-3.546 1.382-3.546 5.053v4.421c0 3.829 1.728 6.711 7.845 6.711h1.152c5.895 0 7.978-2.882 7.978-6.711v-4.421c0-3.75-2.925-4.776-3.723-5.053.754-.316 3.28-1.382 3.28-4.934V7.395zm-5.54 2.763c0 1.697-.753 2.605-2.482 2.605-1.773 0-2.526-.908-2.526-2.645V7.75c0-1.776.798-2.526 2.482-2.526 1.773 0 2.526.75 2.526 2.526v2.408zm.088 13.618c0 1.697-.798 2.724-2.571 2.724-1.906 0-2.615-1.026-2.615-2.724v-3.75c0-1.697.709-2.724 2.571-2.724s2.615 1.105 2.615 2.724v3.75zM43.588 16.963v-2.037h-3.583v-3.44h-2.567v3.44h-3.583v2.037h3.583v3.463h2.567v-3.463h3.583z" style="fill:var(--color1, #e8e8e8)"/>
    </symbol>
    <symbol id="icon-plus" viewBox="0 0 35 32">
      <path fill="#fff" d="M14.237 30.549V18.401H1.535v-6.074h12.702V.122h6.322v12.205h12.645v6.074H20.559v12.148h-6.322z" style="fill:var(--color4, #fff)"/>
    </symbol>
  </defs>
</svg>
