<svg xmlns="http://www.w3.org/2000/svg" aria-hidden="true" style="position:absolute;width:0;height:0;overflow:hidden">
  <defs>
    <symbol id="icon-age" viewBox="0 0 45 32">
      <path fill="#e8e8e8" d="M5.438 8.619v22.026h5.806V1.277H6.635C6.015 3.685 4.995 4.553.74 4.553v4.066h4.698zM30.975 7.395C30.975 3.448 28.981 1 23.352 1h-.886c-5.895 0-7.623 2.447-7.623 6.395v2.487c0 3.553 2.393 4.618 3.147 4.934-.753.276-3.546 1.382-3.546 5.053v4.421c0 3.829 1.728 6.711 7.845 6.711h1.152c5.895 0 7.978-2.882 7.978-6.711v-4.421c0-3.75-2.925-4.776-3.723-5.053.754-.316 3.28-1.382 3.28-4.934V7.395zm-5.54 2.763c0 1.697-.753 2.605-2.482 2.605-1.773 0-2.526-.908-2.526-2.645V7.75c0-1.776.798-2.526 2.482-2.526 1.773 0 2.526.75 2.526 2.526v2.408zm.088 13.618c0 1.697-.798 2.724-2.571 2.724-1.906 0-2.615-1.026-2.615-2.724v-3.75c0-1.697.709-2.724 2.571-2.724s2.615 1.105 2.615 2.724v3.75zM43.588 16.963v-2.037h-3.583v-3.44h-2.567v3.44h-3.583v2.037h3.583v3.463h2.567v-3.463h3.583z" style="fill:var(--color1, #e8e8e8)"/>
    </symbol>
    <symbol id="icon-logo" viewBox="0 0 97 32">
      <path fill="#ff267e" d="M97.231 0H0v17.384h97.231V0z" style="fill:var(--color2, #ff267e)"/>
      <path fill="#005" d="M31.535 8.352h-5.787V6.665h7V4.336H22.393v8.673h3.355V10.68h5.787V8.351zM49.927 10.112l-3.07-5.776h-3.852l4.988 8.673h3.822l4.983-8.673h-3.796l-3.075 5.776zM67.554 8.603a2.041 2.041 0 0 0 1.295-1.865c0-1.422-1.196-2.402-3.55-2.402h-7.596v8.673h7.773c2.526 0 3.649-1.002 3.649-2.455-.017-.811-.505-1.544-1.572-1.951zm-6.581-2.168h3.744a.665.665 0 0 1 .79.65.665.665 0 0 1-.79.65h-3.744V6.434zm4.017 4.51h-4.016V9.644h4.016a.665.665 0 0 1 .79.651.665.665 0 0 1-.79.65zM74.057 9.614h5.778V7.732h-5.778V6.665h6.387V4.336h-9.742v8.673h9.893V10.68h-6.538V9.613zM81.982 4.336v2.329h3.766v6.344h3.394V6.665h3.761V4.336H81.982zM36.648 4.336l-4.983 8.673h3.567l.674-1.279h5.329l.674 1.279h3.714l-4.988-8.673h-3.986zm.431 5.143 1.473-2.793 1.473 2.793H37.08zM4.463 7.735l2.975 5.273h3.822L8.28 7.735H4.463zM14.236 7.735l-2.975 5.273h3.817l2.975-5.273h-3.817zM11.26 2.475l-2.98 5.26h5.955l-2.975-5.26zM.197 31.496V17.402h42.352v14.094H.197z" style="fill:var(--color3, #005)"/>
      <path fill="#ff267e" d="M9.532 25.488c-.04.293-.119.554-.254.799s-.318.451-.532.625a2.252 2.252 0 0 1-.755.411c-.294.103-.612.15-.953.15a2.9 2.9 0 0 1-1.144-.213 2.127 2.127 0 0 1-.842-.601c-.238-.261-.405-.569-.524-.941s-.183-.783-.183-1.241c0-.451.064-.862.191-1.226s.31-.672.548-.925c.23-.253.516-.451.858-.585a2.995 2.995 0 0 1 1.128-.206c.342 0 .651.047.93.134.278.095.524.229.739.395.215.174.389.38.524.617.135.245.222.514.27.814H8.452a1.884 1.884 0 0 0-.214-.506 1.381 1.381 0 0 0-.318-.324 1.296 1.296 0 0 0-.397-.182 2.198 2.198 0 0 0-.461-.047c-.215 0-.421.04-.604.127-.191.095-.358.221-.493.395s-.246.387-.326.64a2.95 2.95 0 0 0-.119.878c0 .34.04.648.119.901.079.261.191.482.326.656.135.182.294.316.477.403s.373.134.58.134a1.647 1.647 0 0 0 .906-.253c.119-.079.23-.198.318-.332s.159-.3.207-.498h1.081zM12.678 21.636h1.144l2.153 5.733h-1.231l-.405-1.162h-2.24l-.405 1.162h-1.16l2.145-5.733zm-.254 3.645h1.589l-.794-2.262-.794 2.262zM18.819 24.856a3.499 3.499 0 0 1-.659-.198 1.89 1.89 0 0 1-.548-.332 1.384 1.384 0 0 1-.373-.482 1.397 1.397 0 0 1-.143-.648c0-.293.072-.538.215-.751.135-.206.318-.38.54-.514.215-.134.461-.229.739-.3.27-.063.54-.095.802-.095a2.578 2.578 0 0 1 1.557.482 1.9 1.9 0 0 1 .5.569c.119.221.191.467.207.743H20.56a1.023 1.023 0 0 0-.151-.427 1.046 1.046 0 0 0-.286-.277 1.4 1.4 0 0 0-.373-.15c-.135-.024-.27-.04-.405-.04s-.262.016-.397.04a1.172 1.172 0 0 0-.357.119.86.86 0 0 0-.254.221.537.537 0 0 0-.103.332c0 .198.079.356.23.474s.342.198.572.237l.755.134c.23.04.469.103.707.174.23.071.445.174.636.3.183.134.334.3.453.498.119.206.175.459.175.751s-.064.554-.199.767a1.884 1.884 0 0 1-.532.554 2.43 2.43 0 0 1-.747.324 3.118 3.118 0 0 1-.858.111c-.357 0-.675-.047-.961-.142a2.148 2.148 0 0 1-.755-.395 1.792 1.792 0 0 1-.509-.625 2.133 2.133 0 0 1-.23-.83h1.096c.032.213.087.387.175.522a1.094 1.094 0 0 0 .739.514c.151.04.318.055.485.055.127 0 .262-.016.397-.04s.254-.071.373-.134a.681.681 0 0 0 .278-.245.643.643 0 0 0 .103-.38c0-.119-.024-.229-.079-.316s-.127-.158-.222-.221a1.615 1.615 0 0 0-.334-.15 3.375 3.375 0 0 0-.429-.095l-.731-.134zM24.389 21.636h-1.136v5.733h1.136v-5.733zM29.592 27.369l-2.304-4.373v4.373h-1.073v-5.733h1.478l2.304 4.373v-4.373h1.073v5.733h-1.478zM33.842 24.5c0 .34.048.633.135.894s.199.474.35.648.326.308.524.395a1.58 1.58 0 0 0 1.272 0c.199-.087.373-.221.524-.395s.27-.387.357-.648c.079-.261.127-.554.127-.894s-.048-.633-.127-.894c-.087-.253-.207-.467-.357-.64a1.49 1.49 0 0 0-1.16-.529 1.58 1.58 0 0 0-.636.134c-.199.087-.373.221-.524.395s-.262.387-.35.64a2.796 2.796 0 0 0-.135.894zm4.465 0c0 .443-.063.846-.199 1.21-.135.372-.318.68-.564.941a2.538 2.538 0 0 1-.89.609c-.35.142-.739.213-1.168.213s-.818-.071-1.16-.213a2.4 2.4 0 0 1-.89-.609 2.565 2.565 0 0 1-.572-.941c-.135-.364-.199-.767-.199-1.21s.064-.846.199-1.218a2.6 2.6 0 0 1 .572-.933 2.48 2.48 0 0 1 .89-.601c.342-.142.731-.213 1.16-.213s.818.071 1.168.213c.342.142.636.34.89.601.246.261.429.569.564.933.135.372.199.775.199 1.218z" style="fill:var(--color2, #ff267e)"/>
    </symbol>
    <symbol id="icon-plus" viewBox="0 0 35 32">
      <path fill="#fff" d="M14.237 30.549V18.401H1.535v-6.074h12.702V.122h6.322v12.205h12.645v6.074H20.559v12.148h-6.322z" style="fill:var(--color4, #fff)"/>
    </symbol>
  </defs>
</svg>
